<svg xmlns="http://www.w3.org/2000/svg" xmlns:xlink="http://www.w3.org/1999/xlink" width="500" zoomAndPan="magnify" viewBox="0 0 375 374.999991" height="500" preserveAspectRatio="xMidYMid meet" version="1.0"><defs><clipPath id="c478dcfedd"><path d="M 180 4.917969 L 195 4.917969 L 195 20 L 180 20 Z M 180 4.917969 " clip-rule="nonzero"/></clipPath><clipPath id="31a473f299"><path d="M 51.984375 8.570312 L 323.371094 8.570312 L 323.371094 370.167969 L 51.984375 370.167969 Z M 51.984375 8.570312 " clip-rule="nonzero"/></clipPath></defs><path fill="#ffffff" d="M 80.550781 140.457031 C 80.550781 199.464844 128.609375 247.464844 187.679688 247.464844 C 246.75 247.464844 294.808594 199.464844 294.808594 140.457031 C 294.808594 81.453125 246.75 33.453125 187.679688 33.453125 C 128.609375 33.453125 80.550781 81.453125 80.550781 140.457031 Z M 187.679688 47.71875 C 238.875 47.71875 280.523438 89.324219 280.523438 140.457031 C 280.523438 191.597656 238.875 233.199219 187.679688 233.199219 C 136.484375 233.199219 94.835938 191.597656 94.835938 140.457031 C 94.835938 89.324219 136.484375 47.71875 187.679688 47.71875 " fill-opacity="1" fill-rule="nonzero"/><path fill="#ffffff" d="M 121.539062 127.742188 L 149.222656 154.984375 L 142.851562 193.277344 C 142.410156 195.945312 143.511719 198.628906 145.699219 200.21875 C 147.886719 201.808594 150.789062 202.019531 153.191406 200.78125 L 187.679688 182.886719 L 222.167969 200.78125 C 224.546875 202.011719 227.449219 201.820312 229.652344 200.21875 C 231.84375 198.628906 232.945312 195.941406 232.5 193.277344 L 226.132812 154.984375 L 253.816406 127.742188 C 255.746094 125.847656 256.433594 123.027344 255.59375 120.453125 C 254.757812 117.886719 252.542969 116.011719 249.863281 115.605469 L 211.449219 109.828125 L 194.066406 75.101562 C 192.859375 72.6875 190.382812 71.160156 187.679688 71.160156 C 184.972656 71.160156 182.503906 72.6875 181.292969 75.101562 L 163.910156 109.828125 L 125.492188 115.605469 C 122.816406 116.003906 120.597656 117.886719 119.761719 120.453125 C 118.921875 123.027344 119.617188 125.847656 121.539062 127.742188 Z M 169.703125 123.386719 C 172 123.042969 173.988281 121.601562 175.027344 119.523438 L 187.679688 94.246094 L 200.332031 119.523438 C 201.371094 121.601562 203.359375 123.042969 205.65625 123.386719 L 233.617188 127.589844 L 213.46875 147.414062 C 211.8125 149.046875 211.054688 151.378906 211.433594 153.671875 L 216.070312 181.539062 L 190.96875 168.519531 C 189.941406 167.988281 188.808594 167.71875 187.679688 167.71875 C 186.546875 167.71875 185.417969 167.988281 184.386719 168.519531 L 159.285156 181.539062 L 163.921875 153.671875 C 164.304688 151.378906 163.542969 149.046875 161.886719 147.414062 L 141.738281 127.589844 L 169.703125 123.386719 " fill-opacity="1" fill-rule="nonzero"/><g clip-path="url(#c478dcfedd)"><path fill="#ffffff" d="M 194.820312 12.050781 C 194.820312 15.992188 191.625 19.183594 187.679688 19.183594 C 183.734375 19.183594 180.539062 15.992188 180.539062 12.050781 C 180.539062 8.109375 183.734375 4.917969 187.679688 4.917969 C 191.625 4.917969 194.820312 8.109375 194.820312 12.050781 " fill-opacity="1" fill-rule="nonzero"/></g><g clip-path="url(#31a473f299)"><path fill="#ffffff" d="M 154.023438 9.121094 C 93.941406 24.441406 51.984375 78.445312 51.984375 140.457031 C 51.984375 178.972656 68.195312 215.265625 96.65625 240.964844 L 53.628906 316.710938 C 52.246094 319.144531 52.417969 322.167969 54.066406 324.429688 C 55.71875 326.695312 58.542969 327.785156 61.292969 327.214844 L 110.152344 317.082031 L 127.328125 365.417969 C 128.261719 368.050781 130.644531 369.890625 133.425781 370.136719 C 136.214844 370.386719 138.882812 368.984375 140.265625 366.558594 L 187.679688 283.292969 L 235.09375 366.558594 C 236.371094 368.800781 238.746094 370.164062 241.292969 370.164062 C 241.507812 370.164062 241.71875 370.15625 241.925781 370.136719 C 244.710938 369.890625 247.097656 368.046875 248.03125 365.417969 L 265.203125 317.082031 L 314.0625 327.214844 C 316.808594 327.78125 319.636719 326.695312 321.285156 324.429688 C 322.941406 322.167969 323.113281 319.144531 321.730469 316.710938 L 278.699219 240.964844 C 307.160156 215.265625 323.371094 178.972656 323.371094 140.457031 C 323.371094 78.445312 281.410156 24.441406 221.335938 9.121094 C 217.511719 8.148438 213.628906 10.449219 212.652344 14.269531 C 211.671875 18.085938 213.980469 21.972656 217.804688 22.945312 C 271.550781 36.652344 309.089844 84.976562 309.089844 140.457031 C 309.089844 207.988281 254.183594 261.734375 187.679688 261.734375 C 121.125 261.734375 66.269531 207.941406 66.269531 140.457031 C 66.269531 84.976562 103.804688 36.652344 157.550781 22.945312 C 161.375 21.972656 163.683594 18.085938 162.710938 14.269531 C 161.730469 10.449219 157.847656 8.148438 154.023438 9.121094 Z M 135.566406 345.953125 L 121.53125 306.445312 C 120.339844 303.082031 116.847656 301.121094 113.351562 301.84375 L 73.839844 310.039062 L 107.890625 250.09375 C 127.746094 264.511719 151.257812 273.296875 175.703125 275.46875 Z M 262.003906 301.84375 C 258.511719 301.121094 255.015625 303.082031 253.820312 306.445312 L 239.789062 345.953125 L 199.652344 275.46875 C 224.101562 273.296875 247.609375 264.511719 267.46875 250.09375 L 301.519531 310.039062 L 262.003906 301.84375 " fill-opacity="1" fill-rule="nonzero"/></g></svg>