<svg xmlns="http://www.w3.org/2000/svg" xmlns:xlink="http://www.w3.org/1999/xlink" width="500" zoomAndPan="magnify" viewBox="0 0 375 374.999991" height="500" preserveAspectRatio="xMidYMid meet" version="1.0"><defs><clipPath id="493c549d00"><path d="M 257 69 L 349.605469 69 L 349.605469 157 L 257 157 Z M 257 69 " clip-rule="nonzero"/></clipPath><clipPath id="cea25a9fd4"><path d="M 149 7.109375 L 253 7.109375 L 253 106 L 149 106 Z M 149 7.109375 " clip-rule="nonzero"/></clipPath><clipPath id="00c1930080"><path d="M 100 246 L 120 246 L 120 367.859375 L 100 367.859375 Z M 100 246 " clip-rule="nonzero"/></clipPath><clipPath id="d04a49e706"><path d="M 19.605469 246 L 87 246 L 87 367.859375 L 19.605469 367.859375 Z M 19.605469 246 " clip-rule="nonzero"/></clipPath></defs><path fill="#ffffff" d="M 123.972656 156.671875 C 123.523438 156.675781 123.089844 156.59375 122.675781 156.429688 L 97.722656 146.382812 L 72.765625 156.429688 C 72.214844 156.648438 71.644531 156.722656 71.054688 156.652344 C 70.464844 156.578125 69.929688 156.367188 69.445312 156.023438 C 68.960938 155.671875 68.589844 155.230469 68.339844 154.6875 C 68.085938 154.148438 67.980469 153.578125 68.023438 152.984375 L 69.878906 126.167969 L 52.582031 105.558594 C 52.394531 105.335938 52.238281 105.089844 52.113281 104.828125 C 51.984375 104.5625 51.894531 104.285156 51.839844 104 C 51.785156 103.710938 51.765625 103.421875 51.78125 103.128906 C 51.800781 102.835938 51.855469 102.550781 51.945312 102.273438 C 52.035156 101.996094 52.160156 101.730469 52.320312 101.484375 C 52.476562 101.238281 52.664062 101.015625 52.878906 100.816406 C 53.089844 100.617188 53.328125 100.445312 53.585938 100.304688 C 53.84375 100.167969 54.113281 100.0625 54.398438 99.988281 L 80.496094 93.464844 L 94.777344 70.683594 C 94.933594 70.433594 95.117188 70.207031 95.328125 70.003906 C 95.542969 69.800781 95.777344 69.625 96.035156 69.484375 C 96.292969 69.339844 96.5625 69.230469 96.847656 69.15625 C 97.132812 69.082031 97.421875 69.046875 97.71875 69.046875 C 98.011719 69.046875 98.300781 69.082031 98.585938 69.15625 C 98.871094 69.230469 99.140625 69.339844 99.398438 69.484375 C 99.65625 69.625 99.890625 69.800781 100.105469 70.003906 C 100.316406 70.207031 100.503906 70.433594 100.65625 70.683594 L 114.9375 93.464844 L 141.023438 99.988281 C 141.304688 100.0625 141.578125 100.167969 141.835938 100.304688 C 142.09375 100.445312 142.328125 100.617188 142.542969 100.816406 C 142.757812 101.015625 142.945312 101.238281 143.101562 101.488281 C 143.257812 101.734375 143.382812 101.996094 143.472656 102.273438 C 143.566406 102.554688 143.617188 102.839844 143.636719 103.132812 C 143.65625 103.425781 143.636719 103.714844 143.578125 104.003906 C 143.523438 104.289062 143.433594 104.566406 143.304688 104.832031 C 143.179688 105.09375 143.023438 105.339844 142.835938 105.5625 L 125.539062 126.167969 L 127.394531 152.988281 C 127.417969 153.460938 127.351562 153.921875 127.191406 154.367188 C 127.03125 154.8125 126.789062 155.207031 126.464844 155.554688 C 126.144531 155.902344 125.765625 156.171875 125.332031 156.367188 C 124.898438 156.5625 124.445312 156.664062 123.972656 156.671875 Z M 123.972656 156.671875 " fill-opacity="1" fill-rule="nonzero"/><g clip-path="url(#493c549d00)"><path fill="#ffffff" d="M 329.808594 156.675781 C 329.363281 156.675781 328.929688 156.59375 328.511719 156.429688 L 303.5625 146.382812 L 278.605469 156.429688 C 278.050781 156.648438 277.480469 156.722656 276.886719 156.652344 C 276.296875 156.578125 275.761719 156.367188 275.277344 156.019531 C 274.792969 155.671875 274.425781 155.226562 274.175781 154.6875 C 273.921875 154.148438 273.820312 153.582031 273.863281 152.988281 L 275.714844 126.167969 L 258.421875 105.558594 C 258.234375 105.335938 258.074219 105.089844 257.949219 104.828125 C 257.824219 104.5625 257.734375 104.285156 257.675781 104 C 257.621094 103.710938 257.601562 103.421875 257.621094 103.128906 C 257.640625 102.835938 257.695312 102.550781 257.785156 102.273438 C 257.875 101.996094 258 101.730469 258.15625 101.484375 C 258.316406 101.238281 258.5 101.015625 258.714844 100.816406 C 258.929688 100.617188 259.164062 100.445312 259.421875 100.304688 C 259.679688 100.167969 259.953125 100.0625 260.238281 99.988281 L 286.335938 93.464844 L 300.613281 70.683594 C 300.769531 70.433594 300.953125 70.207031 301.167969 70.003906 C 301.378906 69.800781 301.617188 69.625 301.871094 69.484375 C 302.128906 69.339844 302.402344 69.230469 302.6875 69.15625 C 302.972656 69.082031 303.261719 69.046875 303.554688 69.046875 C 303.851562 69.046875 304.140625 69.082031 304.425781 69.15625 C 304.710938 69.230469 304.980469 69.339844 305.238281 69.484375 C 305.496094 69.625 305.730469 69.800781 305.945312 70.003906 C 306.15625 70.207031 306.339844 70.433594 306.496094 70.683594 L 320.773438 93.464844 L 346.878906 99.988281 C 347.160156 100.058594 347.433594 100.164062 347.691406 100.304688 C 347.949219 100.441406 348.183594 100.613281 348.398438 100.8125 C 348.613281 101.011719 348.800781 101.234375 348.957031 101.484375 C 349.113281 101.730469 349.238281 101.992188 349.328125 102.273438 C 349.421875 102.550781 349.476562 102.835938 349.492188 103.128906 C 349.511719 103.421875 349.492188 103.710938 349.433594 104 C 349.378906 104.285156 349.289062 104.5625 349.164062 104.828125 C 349.035156 105.089844 348.878906 105.335938 348.691406 105.558594 L 331.394531 126.164062 L 333.25 152.984375 C 333.269531 153.457031 333.199219 153.917969 333.035156 154.363281 C 332.871094 154.804688 332.625 155.203125 332.300781 155.546875 C 331.980469 155.894531 331.601562 156.167969 331.167969 156.363281 C 330.738281 156.558594 330.285156 156.660156 329.808594 156.675781 Z M 329.808594 156.675781 " fill-opacity="1" fill-rule="nonzero"/></g><g clip-path="url(#cea25a9fd4)"><path fill="#ffffff" d="M 230.316406 105.621094 C 229.867188 105.628906 229.433594 105.550781 229.019531 105.386719 L 200.652344 93.960938 L 172.257812 105.386719 C 171.703125 105.605469 171.128906 105.679688 170.539062 105.605469 C 169.949219 105.535156 169.410156 105.324219 168.925781 104.976562 C 168.445312 104.625 168.078125 104.179688 167.828125 103.640625 C 167.578125 103.101562 167.472656 102.535156 167.515625 101.941406 L 169.621094 71.449219 L 149.96875 48.019531 C 149.78125 47.792969 149.625 47.550781 149.5 47.285156 C 149.375 47.019531 149.28125 46.746094 149.226562 46.457031 C 149.171875 46.171875 149.152344 45.878906 149.171875 45.589844 C 149.1875 45.296875 149.242188 45.011719 149.332031 44.730469 C 149.421875 44.453125 149.546875 44.191406 149.707031 43.945312 C 149.863281 43.699219 150.046875 43.472656 150.261719 43.273438 C 150.476562 43.074219 150.710938 42.90625 150.96875 42.765625 C 151.226562 42.625 151.5 42.519531 151.78125 42.449219 L 181.464844 35.03125 L 197.703125 9.113281 C 197.859375 8.863281 198.042969 8.636719 198.253906 8.433594 C 198.46875 8.230469 198.703125 8.058594 198.960938 7.917969 C 199.21875 7.773438 199.488281 7.664062 199.773438 7.589844 C 200.058594 7.515625 200.347656 7.480469 200.644531 7.480469 C 200.9375 7.480469 201.226562 7.515625 201.511719 7.589844 C 201.796875 7.664062 202.070312 7.773438 202.324219 7.917969 C 202.582031 8.058594 202.816406 8.230469 203.03125 8.433594 C 203.242188 8.636719 203.429688 8.863281 203.582031 9.113281 L 219.820312 35.03125 L 249.507812 42.449219 C 249.792969 42.519531 250.0625 42.625 250.320312 42.765625 C 250.578125 42.90625 250.8125 43.074219 251.027344 43.273438 C 251.242188 43.476562 251.425781 43.699219 251.585938 43.945312 C 251.742188 44.191406 251.867188 44.457031 251.957031 44.734375 C 252.046875 45.011719 252.101562 45.296875 252.117188 45.589844 C 252.136719 45.882812 252.117188 46.171875 252.0625 46.460938 C 252.003906 46.75 251.914062 47.023438 251.789062 47.289062 C 251.660156 47.554688 251.503906 47.796875 251.316406 48.023438 L 231.667969 71.449219 L 233.773438 101.945312 C 233.796875 102.421875 233.726562 102.882812 233.5625 103.328125 C 233.398438 103.773438 233.152344 104.171875 232.824219 104.515625 C 232.5 104.863281 232.117188 105.132812 231.683594 105.324219 C 231.246094 105.515625 230.792969 105.617188 230.316406 105.621094 Z M 230.316406 105.621094 " fill-opacity="1" fill-rule="nonzero"/></g><g clip-path="url(#00c1930080)"><path fill="#ffffff" d="M 100.410156 246.25 L 100.410156 367.261719 L 107.53125 367.261719 C 108.316406 367.261719 109.09375 367.183594 109.863281 367.03125 C 110.636719 366.878906 111.382812 366.648438 112.109375 366.347656 C 112.835938 366.046875 113.523438 365.679688 114.179688 365.242188 C 114.832031 364.808594 115.4375 364.3125 115.992188 363.757812 C 116.546875 363.203125 117.042969 362.597656 117.480469 361.945312 C 117.917969 361.292969 118.285156 360.605469 118.585938 359.878906 C 118.886719 359.152344 119.117188 358.40625 119.269531 357.636719 C 119.425781 356.867188 119.5 356.089844 119.503906 355.304688 L 119.503906 246.25 Z M 100.410156 246.25 " fill-opacity="1" fill-rule="nonzero"/></g><g clip-path="url(#d04a49e706)"><path fill="#ffffff" d="M 19.722656 246.25 L 19.722656 367.261719 L 86.574219 367.261719 L 86.574219 246.25 Z M 58.039062 342.75 C 57.714844 343.074219 57.367188 343.359375 56.988281 343.609375 C 56.613281 343.863281 56.210938 344.074219 55.792969 344.25 C 55.375 344.421875 54.941406 344.554688 54.496094 344.644531 C 54.050781 344.730469 53.601562 344.777344 53.144531 344.777344 C 52.691406 344.777344 52.242188 344.730469 51.796875 344.644531 C 51.351562 344.554688 50.917969 344.425781 50.496094 344.25 C 50.078125 344.078125 49.679688 343.863281 49.300781 343.613281 C 48.921875 343.359375 48.574219 343.074219 48.253906 342.753906 C 47.933594 342.429688 47.644531 342.082031 47.394531 341.707031 C 47.140625 341.328125 46.925781 340.929688 46.753906 340.511719 C 46.578125 340.089844 46.449219 339.660156 46.359375 339.214844 C 46.269531 338.769531 46.226562 338.320312 46.226562 337.867188 C 46.226562 337.410156 46.269531 336.960938 46.359375 336.515625 C 46.449219 336.070312 46.578125 335.640625 46.753906 335.222656 C 46.925781 334.800781 47.140625 334.402344 47.394531 334.027344 C 47.644531 333.648438 47.933594 333.300781 48.253906 332.980469 C 48.574219 332.65625 48.921875 332.371094 49.300781 332.121094 C 49.679688 331.867188 50.078125 331.65625 50.496094 331.480469 C 50.917969 331.308594 51.351562 331.175781 51.796875 331.085938 C 52.242188 331 52.691406 330.953125 53.144531 330.953125 C 53.601562 330.953125 54.050781 331 54.496094 331.085938 C 54.941406 331.175781 55.375 331.308594 55.792969 331.480469 C 56.210938 331.65625 56.613281 331.867188 56.988281 332.121094 C 57.367188 332.371094 57.714844 332.660156 58.039062 332.980469 C 58.359375 333.300781 58.644531 333.648438 58.898438 334.027344 C 59.148438 334.402344 59.363281 334.800781 59.539062 335.222656 C 59.710938 335.640625 59.84375 336.070312 59.929688 336.515625 C 60.019531 336.960938 60.066406 337.410156 60.066406 337.863281 C 60.066406 338.320312 60.019531 338.769531 59.933594 339.210938 C 59.84375 339.65625 59.710938 340.089844 59.539062 340.507812 C 59.367188 340.929688 59.152344 341.328125 58.902344 341.703125 C 58.648438 342.082031 58.363281 342.429688 58.039062 342.75 Z M 58.039062 342.75 " fill-opacity="1" fill-rule="nonzero"/></g><path fill="#ffffff" d="M 218.320312 366.480469 C 194.300781 366.480469 160.871094 364.40625 138 354.59375 C 138 354.59375 134.710938 353.945312 133.335938 353.851562 L 133.335938 244.667969 C 136.964844 242.84375 140.242188 240.519531 143.160156 237.695312 C 146.082031 234.871094 148.511719 231.675781 150.453125 228.109375 C 154.347656 221.5 159.242188 215.738281 165.144531 210.832031 C 174.730469 202.132812 184.636719 193.144531 194.699219 158.472656 C 195.101562 157.195312 195.632812 155.972656 196.285156 154.800781 C 196.9375 153.632812 197.699219 152.539062 198.574219 151.527344 C 199.449219 150.511719 200.417969 149.597656 201.480469 148.78125 C 202.542969 147.964844 203.675781 147.261719 204.878906 146.675781 C 205.851562 146.285156 206.859375 146.007812 207.894531 145.84375 C 208.929688 145.679688 209.96875 145.636719 211.015625 145.707031 C 212.0625 145.777344 213.085938 145.96875 214.089844 146.269531 C 215.09375 146.574219 216.050781 146.988281 216.960938 147.507812 C 226.875 152.753906 227.78125 167.40625 227.851562 180.730469 C 228.300781 193.058594 226.78125 205.144531 223.289062 216.976562 L 220.234375 226.058594 L 283.238281 226.058594 C 284.382812 226.035156 285.515625 226.117188 286.644531 226.300781 C 287.769531 226.488281 288.871094 226.777344 289.945312 227.164062 C 291.015625 227.554688 292.046875 228.035156 293.03125 228.613281 C 294.015625 229.191406 294.9375 229.855469 295.800781 230.601562 C 296.664062 231.351562 297.449219 232.171875 298.160156 233.066406 C 298.871094 233.957031 299.496094 234.90625 300.03125 235.914062 C 300.566406 236.921875 301.003906 237.972656 301.347656 239.058594 C 301.6875 240.148438 301.925781 241.257812 302.066406 242.390625 C 302.226562 244.230469 302.109375 246.050781 301.710938 247.855469 C 301.3125 249.660156 300.65625 251.359375 299.734375 252.960938 L 295.535156 260.28125 L 303.546875 262.949219 C 304.453125 263.222656 305.332031 263.566406 306.1875 263.980469 C 307.039062 264.394531 307.851562 264.871094 308.625 265.414062 C 309.402344 265.957031 310.128906 266.558594 310.808594 267.214844 C 311.488281 267.875 312.113281 268.582031 312.679688 269.339844 C 313.246094 270.097656 313.75 270.894531 314.1875 271.734375 C 314.628906 272.570312 314.996094 273.4375 315.300781 274.335938 C 315.601562 275.230469 315.828125 276.148438 315.984375 277.078125 C 316.140625 278.011719 316.21875 278.953125 316.222656 279.898438 C 316.230469 280.84375 316.160156 281.785156 316.015625 282.71875 C 315.871094 283.652344 315.652344 284.570312 315.363281 285.472656 C 315.070312 286.371094 314.710938 287.242188 314.28125 288.085938 C 313.851562 288.929688 313.355469 289.730469 312.800781 290.496094 C 312.242188 291.261719 311.625 291.976562 310.953125 292.640625 C 310.28125 293.308594 309.5625 293.917969 308.792969 294.46875 C 308.023438 295.019531 307.214844 295.507812 306.367188 295.929688 C 305.519531 296.351562 304.644531 296.707031 303.742188 296.988281 L 295.644531 299.566406 L 299.796875 306.964844 C 300.6875 308.546875 301.328125 310.226562 301.710938 312.003906 C 302.097656 313.777344 302.210938 315.570312 302.050781 317.382812 C 301.9375 318.351562 301.75 319.308594 301.484375 320.25 C 301.21875 321.1875 300.882812 322.101562 300.46875 322.988281 C 300.058594 323.875 299.582031 324.722656 299.035156 325.535156 C 298.488281 326.34375 297.878906 327.105469 297.210938 327.820312 C 296.542969 328.53125 295.820312 329.1875 295.046875 329.785156 C 294.273438 330.382812 293.460938 330.917969 292.601562 331.386719 C 291.742188 331.851562 290.851562 332.25 289.929688 332.578125 C 289.007812 332.902344 288.066406 333.152344 287.105469 333.328125 L 278.539062 335.054688 L 282.183594 342.988281 C 283.367188 345.5625 283.839844 348.265625 283.597656 351.089844 C 283.472656 352.09375 283.261719 353.082031 282.957031 354.050781 C 282.652344 355.015625 282.261719 355.949219 281.785156 356.84375 C 281.308594 357.738281 280.757812 358.582031 280.125 359.375 C 279.492188 360.167969 278.792969 360.898438 278.027344 361.5625 C 277.261719 362.226562 276.441406 362.816406 275.566406 363.332031 C 274.691406 363.84375 273.777344 364.273438 272.820312 364.617188 C 271.867188 364.964844 270.890625 365.21875 269.886719 365.382812 C 268.886719 365.550781 267.878906 365.621094 266.863281 365.601562 L 245.027344 365.601562 C 236.785156 366.167969 227.390625 366.480469 218.320312 366.480469 Z M 218.320312 366.480469 " fill-opacity="1" fill-rule="nonzero"/></svg>