<svg xmlns="http://www.w3.org/2000/svg" xmlns:xlink="http://www.w3.org/1999/xlink" width="500" zoomAndPan="magnify" viewBox="0 0 375 374.999991" height="500" preserveAspectRatio="xMidYMid meet" version="1.0"><defs><clipPath id="aa79e87078"><path d="M 48.691406 206 L 62 206 L 62 220 L 48.691406 220 Z M 48.691406 206 " clip-rule="nonzero"/></clipPath><clipPath id="c5d3a035bf"><path d="M 48.691406 155 L 320.191406 155 L 320.191406 375 L 48.691406 375 Z M 48.691406 155 " clip-rule="nonzero"/></clipPath><clipPath id="14cfab05c2"><path d="M 180 4.917969 L 195 4.917969 L 195 20 L 180 20 Z M 180 4.917969 " clip-rule="nonzero"/></clipPath><clipPath id="4fe20a641d"><path d="M 51.984375 8.570312 L 323.371094 8.570312 L 323.371094 370.167969 L 51.984375 370.167969 Z M 51.984375 8.570312 " clip-rule="nonzero"/></clipPath><clipPath id="c2a867dd64"><path d="M 23.140625 11 L 351.640625 11 L 351.640625 272 L 23.140625 272 Z M 23.140625 11 " clip-rule="nonzero"/></clipPath></defs><g clip-path="url(#aa79e87078)"><path fill="#ffffff" d="M 55.15625 206.886719 C 55.582031 206.886719 56 206.925781 56.417969 207.011719 C 56.835938 207.09375 57.238281 207.214844 57.632812 207.378906 C 58.023438 207.539062 58.394531 207.738281 58.75 207.976562 C 59.101562 208.210938 59.429688 208.480469 59.726562 208.777344 C 60.027344 209.078125 60.296875 209.40625 60.53125 209.757812 C 60.769531 210.109375 60.96875 210.484375 61.128906 210.875 C 61.292969 211.265625 61.414062 211.671875 61.496094 212.085938 C 61.578125 212.503906 61.621094 212.925781 61.621094 213.347656 C 61.621094 213.773438 61.578125 214.191406 61.496094 214.609375 C 61.414062 215.023438 61.292969 215.429688 61.128906 215.820312 C 60.96875 216.214844 60.769531 216.585938 60.53125 216.9375 C 60.296875 217.292969 60.027344 217.617188 59.726562 217.917969 C 59.429688 218.21875 59.101562 218.484375 58.75 218.722656 C 58.394531 218.957031 58.023438 219.15625 57.632812 219.316406 C 57.238281 219.480469 56.835938 219.601562 56.417969 219.6875 C 56 219.769531 55.582031 219.808594 55.15625 219.808594 C 54.734375 219.808594 54.3125 219.769531 53.894531 219.6875 C 53.480469 219.601562 53.074219 219.480469 52.683594 219.316406 C 52.292969 219.15625 51.917969 218.957031 51.566406 218.722656 C 51.210938 218.484375 50.886719 218.21875 50.585938 217.917969 C 50.285156 217.617188 50.019531 217.292969 49.78125 216.9375 C 49.546875 216.585938 49.347656 216.214844 49.183594 215.820312 C 49.023438 215.429688 48.898438 215.023438 48.816406 214.609375 C 48.734375 214.191406 48.691406 213.773438 48.691406 213.347656 C 48.691406 212.925781 48.734375 212.503906 48.816406 212.085938 C 48.898438 211.671875 49.023438 211.265625 49.183594 210.875 C 49.347656 210.484375 49.546875 210.109375 49.78125 209.757812 C 50.019531 209.40625 50.285156 209.078125 50.585938 208.777344 C 50.886719 208.480469 51.210938 208.210938 51.566406 207.976562 C 51.917969 207.738281 52.292969 207.539062 52.683594 207.378906 C 53.074219 207.214844 53.480469 207.09375 53.894531 207.011719 C 54.3125 206.925781 54.734375 206.886719 55.15625 206.886719 Z M 55.15625 206.886719 " fill-opacity="1" fill-rule="evenodd"/></g><g clip-path="url(#c5d3a035bf)"><path fill="#ffffff" d="M 190.90625 361.976562 L 255.550781 361.976562 L 255.550781 342.589844 C 255.574219 341.292969 255.921875 340.085938 256.585938 338.96875 L 307.265625 263.105469 L 307.265625 169.277344 C 304.492188 170.210938 302.078125 171.71875 300.023438 173.800781 C 299.125 174.699219 298.320312 175.679688 297.613281 176.734375 C 296.902344 177.792969 296.304688 178.910156 295.816406 180.085938 C 295.328125 181.261719 294.960938 182.472656 294.710938 183.71875 C 294.460938 184.96875 294.335938 186.226562 294.335938 187.5 L 294.335938 235.578125 C 294.351562 236.566406 294.140625 237.503906 293.710938 238.390625 C 293.277344 239.277344 292.667969 240.019531 291.878906 240.617188 L 224.132812 308.339844 C 223.832031 308.644531 223.503906 308.914062 223.152344 309.152344 C 222.796875 309.390625 222.421875 309.589844 222.03125 309.753906 C 221.636719 309.917969 221.230469 310.042969 220.8125 310.125 C 220.394531 310.210938 219.96875 310.25 219.542969 310.25 C 219.117188 310.25 218.695312 310.210938 218.277344 310.125 C 217.859375 310.042969 217.453125 309.917969 217.058594 309.753906 C 216.664062 309.589844 216.289062 309.390625 215.9375 309.152344 C 215.582031 308.914062 215.253906 308.644531 214.953125 308.339844 C 214.644531 308.050781 214.367188 307.730469 214.125 307.386719 C 213.878906 307.039062 213.675781 306.671875 213.507812 306.28125 C 213.335938 305.890625 213.210938 305.492188 213.125 305.074219 C 213.039062 304.660156 212.996094 304.242188 212.996094 303.816406 C 212.996094 303.394531 213.039062 302.972656 213.125 302.558594 C 213.210938 302.144531 213.335938 301.742188 213.507812 301.351562 C 213.675781 300.964844 213.878906 300.59375 214.125 300.25 C 214.367188 299.902344 214.644531 299.582031 214.953125 299.292969 L 244.949219 269.308594 C 245.566406 268.691406 246.042969 267.980469 246.378906 267.175781 C 246.714844 266.371094 246.886719 265.53125 246.886719 264.65625 C 246.898438 263.800781 246.734375 262.976562 246.398438 262.191406 C 246.058594 261.402344 245.578125 260.71875 244.949219 260.132812 C 244.660156 259.824219 244.339844 259.546875 243.992188 259.304688 C 243.644531 259.058594 243.277344 258.855469 242.890625 258.6875 C 242.5 258.515625 242.097656 258.390625 241.683594 258.304688 C 241.265625 258.21875 240.847656 258.175781 240.421875 258.175781 C 240 258.175781 239.578125 258.21875 239.164062 258.304688 C 238.75 258.390625 238.347656 258.515625 237.957031 258.6875 C 237.570312 258.855469 237.199219 259.058594 236.855469 259.304688 C 236.507812 259.546875 236.1875 259.824219 235.898438 260.132812 L 194.65625 301.230469 C 193.445312 302.453125 192.515625 303.855469 191.867188 305.445312 C 191.21875 307.035156 190.898438 308.691406 190.90625 310.410156 Z M 111.007812 256.257812 C 111.949219 254.273438 113.199219 252.503906 114.757812 250.957031 C 115.207031 250.511719 115.679688 250.089844 116.171875 249.691406 C 116.664062 249.292969 117.175781 248.921875 117.703125 248.570312 C 118.234375 248.222656 118.777344 247.898438 119.335938 247.605469 C 119.898438 247.308594 120.46875 247.039062 121.054688 246.800781 C 121.640625 246.558594 122.238281 246.347656 122.84375 246.164062 C 123.453125 245.984375 124.066406 245.832031 124.6875 245.707031 C 125.308594 245.585938 125.9375 245.496094 126.566406 245.433594 C 127.195312 245.371094 127.828125 245.339844 128.460938 245.339844 C 129.09375 245.339844 129.726562 245.371094 130.359375 245.433594 C 130.988281 245.496094 131.613281 245.585938 132.234375 245.707031 C 132.859375 245.832031 133.472656 245.984375 134.078125 246.164062 C 134.683594 246.347656 135.28125 246.558594 135.867188 246.800781 C 136.453125 247.039062 137.027344 247.308594 137.585938 247.605469 C 138.148438 247.898438 138.691406 248.222656 139.21875 248.570312 C 139.75 248.921875 140.257812 249.292969 140.75 249.691406 C 141.242188 250.089844 141.714844 250.511719 142.167969 250.957031 L 183.277344 292.054688 L 184.441406 293.21875 L 185.605469 292.054688 L 226.71875 250.957031 C 227.171875 250.511719 227.640625 250.089844 228.132812 249.691406 C 228.625 249.292969 229.136719 248.921875 229.664062 248.570312 C 230.195312 248.222656 230.738281 247.898438 231.296875 247.605469 C 231.859375 247.308594 232.433594 247.039062 233.019531 246.800781 C 233.605469 246.558594 234.199219 246.347656 234.808594 246.164062 C 235.414062 245.984375 236.027344 245.832031 236.648438 245.707031 C 237.269531 245.585938 237.898438 245.496094 238.527344 245.433594 C 239.15625 245.371094 239.789062 245.339844 240.421875 245.339844 C 241.058594 245.339844 241.6875 245.371094 242.320312 245.433594 C 242.949219 245.496094 243.574219 245.585938 244.199219 245.707031 C 244.820312 245.832031 245.433594 245.984375 246.039062 246.164062 C 246.648438 246.347656 247.242188 246.558594 247.828125 246.800781 C 248.414062 247.039062 248.988281 247.308594 249.546875 247.605469 C 250.109375 247.898438 250.652344 248.222656 251.179688 248.570312 C 251.710938 248.921875 252.21875 249.292969 252.710938 249.691406 C 253.203125 250.089844 253.675781 250.511719 254.128906 250.957031 C 255.6875 252.503906 256.9375 254.273438 257.878906 256.257812 L 281.40625 232.863281 L 281.40625 187.5 C 281.402344 186.441406 281.449219 185.382812 281.550781 184.328125 C 281.652344 183.273438 281.804688 182.226562 282.007812 181.1875 C 282.210938 180.148438 282.464844 179.121094 282.769531 178.105469 C 283.074219 177.089844 283.429688 176.09375 283.832031 175.113281 C 284.234375 174.136719 284.6875 173.179688 285.183594 172.242188 C 285.683594 171.308594 286.226562 170.398438 286.8125 169.519531 C 287.402344 168.636719 288.03125 167.785156 288.703125 166.96875 C 289.375 166.148438 290.085938 165.363281 290.835938 164.613281 C 291.585938 163.867188 292.371094 163.15625 293.1875 162.484375 C 294.007812 161.8125 294.859375 161.183594 295.742188 160.59375 C 296.621094 160.007812 297.53125 159.464844 298.464844 158.964844 C 299.402344 158.46875 300.359375 158.019531 301.339844 157.613281 C 302.320312 157.210938 303.316406 156.855469 304.332031 156.550781 C 305.347656 156.246094 306.375 155.992188 307.414062 155.789062 C 308.453125 155.585938 309.5 155.433594 310.554688 155.332031 C 311.613281 155.234375 312.667969 155.183594 313.730469 155.191406 C 314.152344 155.191406 314.574219 155.230469 314.988281 155.3125 C 315.40625 155.398438 315.808594 155.519531 316.203125 155.679688 C 316.59375 155.84375 316.96875 156.042969 317.320312 156.277344 C 317.671875 156.515625 318 156.78125 318.300781 157.082031 C 318.597656 157.382812 318.867188 157.707031 319.101562 158.0625 C 319.339844 158.414062 319.539062 158.785156 319.699219 159.179688 C 319.863281 159.570312 319.984375 159.976562 320.070312 160.390625 C 320.152344 160.808594 320.191406 161.226562 320.191406 161.652344 L 320.191406 265.042969 C 320.1875 266.347656 319.839844 267.554688 319.160156 268.664062 L 268.480469 344.527344 L 268.480469 361.976562 L 274.941406 361.976562 C 275.367188 361.976562 275.789062 362.015625 276.203125 362.097656 C 276.621094 362.183594 277.023438 362.304688 277.417969 362.46875 C 277.808594 362.628906 278.179688 362.828125 278.535156 363.066406 C 278.886719 363.300781 279.214844 363.566406 279.515625 363.867188 C 279.8125 364.167969 280.082031 364.496094 280.316406 364.847656 C 280.554688 365.199219 280.753906 365.574219 280.914062 365.964844 C 281.078125 366.355469 281.199219 366.761719 281.28125 367.175781 C 281.367188 367.59375 281.40625 368.011719 281.40625 368.4375 C 281.40625 368.863281 281.367188 369.28125 281.28125 369.699219 C 281.199219 370.113281 281.078125 370.519531 280.914062 370.910156 C 280.753906 371.300781 280.554688 371.675781 280.316406 372.027344 C 280.082031 372.378906 279.8125 372.707031 279.515625 373.007812 C 279.214844 373.308594 278.886719 373.574219 278.535156 373.808594 C 278.179688 374.046875 277.808594 374.246094 277.417969 374.40625 C 277.023438 374.570312 276.621094 374.691406 276.203125 374.773438 C 275.789062 374.859375 275.367188 374.898438 274.941406 374.898438 L 93.941406 374.898438 C 93.519531 374.898438 93.097656 374.859375 92.683594 374.773438 C 92.265625 374.691406 91.859375 374.570312 91.46875 374.40625 C 91.078125 374.246094 90.703125 374.046875 90.351562 373.808594 C 90 373.574219 89.671875 373.308594 89.371094 373.007812 C 89.070312 372.707031 88.804688 372.378906 88.566406 372.027344 C 88.332031 371.675781 88.132812 371.300781 87.96875 370.910156 C 87.808594 370.519531 87.683594 370.113281 87.601562 369.699219 C 87.519531 369.28125 87.480469 368.863281 87.480469 368.4375 C 87.480469 368.011719 87.519531 367.59375 87.601562 367.175781 C 87.683594 366.761719 87.808594 366.355469 87.96875 365.964844 C 88.132812 365.574219 88.332031 365.199219 88.566406 364.847656 C 88.804688 364.496094 89.070312 364.167969 89.371094 363.867188 C 89.671875 363.566406 90 363.300781 90.351562 363.066406 C 90.703125 362.828125 91.078125 362.628906 91.46875 362.46875 C 91.859375 362.304688 92.265625 362.183594 92.683594 362.097656 C 93.097656 362.015625 93.519531 361.976562 93.941406 361.976562 L 100.40625 361.976562 L 100.40625 344.527344 L 49.726562 268.664062 C 49.042969 267.554688 48.699219 266.347656 48.691406 265.042969 L 48.691406 239.195312 C 48.691406 238.773438 48.734375 238.351562 48.816406 237.9375 C 48.898438 237.519531 49.023438 237.117188 49.183594 236.722656 C 49.347656 236.332031 49.546875 235.960938 49.78125 235.605469 C 50.019531 235.253906 50.285156 234.925781 50.585938 234.628906 C 50.886719 234.328125 51.210938 234.058594 51.566406 233.824219 C 51.917969 233.585938 52.292969 233.386719 52.683594 233.226562 C 53.074219 233.0625 53.480469 232.941406 53.894531 232.859375 C 54.3125 232.777344 54.734375 232.734375 55.15625 232.734375 C 55.582031 232.734375 56 232.777344 56.417969 232.859375 C 56.835938 232.941406 57.238281 233.0625 57.632812 233.226562 C 58.023438 233.386719 58.394531 233.585938 58.75 233.824219 C 59.101562 234.058594 59.429688 234.328125 59.726562 234.628906 C 60.027344 234.925781 60.296875 235.253906 60.53125 235.605469 C 60.769531 235.960938 60.96875 236.332031 61.128906 236.722656 C 61.292969 237.117188 61.414062 237.519531 61.496094 237.9375 C 61.578125 238.351562 61.621094 238.773438 61.621094 239.195312 L 61.621094 263.105469 L 112.300781 338.96875 C 112.964844 340.085938 113.308594 341.292969 113.335938 342.589844 L 113.335938 361.976562 L 177.980469 361.976562 L 177.980469 310.277344 C 177.988281 308.5625 177.667969 306.90625 177.019531 305.316406 C 176.371094 303.726562 175.4375 302.324219 174.230469 301.101562 L 132.730469 260.132812 C 132.4375 259.824219 132.121094 259.546875 131.773438 259.304688 C 131.425781 259.058594 131.058594 258.855469 130.667969 258.6875 C 130.28125 258.515625 129.878906 258.390625 129.460938 258.304688 C 129.046875 258.21875 128.628906 258.175781 128.203125 258.175781 C 127.78125 258.175781 127.359375 258.21875 126.945312 258.304688 C 126.53125 258.390625 126.128906 258.515625 125.738281 258.6875 C 125.347656 258.855469 124.980469 259.058594 124.632812 259.304688 C 124.289062 259.546875 123.96875 259.824219 123.679688 260.132812 C 123.050781 260.71875 122.566406 261.402344 122.230469 262.191406 C 121.890625 262.976562 121.730469 263.800781 121.738281 264.65625 C 121.738281 265.46875 121.882812 266.25 122.175781 267.007812 C 122.464844 267.765625 122.878906 268.445312 123.421875 269.050781 L 153.671875 299.292969 C 153.980469 299.582031 154.257812 299.902344 154.503906 300.25 C 154.746094 300.59375 154.953125 300.964844 155.121094 301.351562 C 155.289062 301.742188 155.417969 302.144531 155.503906 302.558594 C 155.589844 302.972656 155.632812 303.394531 155.632812 303.816406 C 155.632812 304.242188 155.589844 304.660156 155.503906 305.074219 C 155.417969 305.492188 155.289062 305.890625 155.121094 306.28125 C 154.953125 306.671875 154.746094 307.039062 154.503906 307.386719 C 154.257812 307.730469 153.980469 308.050781 153.671875 308.339844 C 153.175781 308.808594 152.621094 309.183594 152 309.464844 C 151.382812 309.75 150.730469 309.925781 150.054688 309.996094 C 149.378906 310.066406 148.707031 310.027344 148.042969 309.875 C 147.378906 309.726562 146.753906 309.472656 146.175781 309.117188 C 145.613281 308.890625 145.140625 308.546875 144.753906 308.082031 L 76.746094 240.488281 C 76.066406 239.851562 75.539062 239.105469 75.15625 238.253906 C 74.777344 237.402344 74.574219 236.511719 74.550781 235.578125 L 74.550781 187.5 C 74.550781 186.226562 74.421875 184.96875 74.175781 183.71875 C 73.925781 182.472656 73.554688 181.261719 73.066406 180.085938 C 72.582031 178.910156 71.980469 177.792969 71.273438 176.734375 C 70.566406 175.679688 69.761719 174.699219 68.863281 173.800781 C 66.804688 171.71875 64.394531 170.210938 61.621094 169.277344 L 61.621094 187.5 C 61.621094 187.925781 61.578125 188.34375 61.496094 188.761719 C 61.414062 189.175781 61.292969 189.582031 61.128906 189.972656 C 60.96875 190.363281 60.769531 190.738281 60.53125 191.089844 C 60.296875 191.441406 60.027344 191.769531 59.726562 192.070312 C 59.429688 192.371094 59.101562 192.636719 58.75 192.871094 C 58.394531 193.109375 58.023438 193.308594 57.632812 193.46875 C 57.238281 193.632812 56.835938 193.753906 56.417969 193.835938 C 56 193.921875 55.582031 193.960938 55.15625 193.960938 C 54.734375 193.960938 54.3125 193.921875 53.894531 193.835938 C 53.480469 193.753906 53.074219 193.632812 52.683594 193.46875 C 52.292969 193.308594 51.917969 193.109375 51.566406 192.871094 C 51.210938 192.636719 50.886719 192.371094 50.585938 192.070312 C 50.285156 191.769531 50.019531 191.441406 49.78125 191.089844 C 49.546875 190.738281 49.347656 190.363281 49.183594 189.972656 C 49.023438 189.582031 48.898438 189.175781 48.816406 188.761719 C 48.734375 188.34375 48.691406 187.925781 48.691406 187.5 L 48.691406 161.652344 C 48.691406 161.226562 48.734375 160.808594 48.816406 160.390625 C 48.898438 159.976562 49.023438 159.570312 49.183594 159.179688 C 49.347656 158.785156 49.546875 158.414062 49.78125 158.0625 C 50.019531 157.707031 50.285156 157.382812 50.585938 157.082031 C 50.886719 156.78125 51.210938 156.515625 51.566406 156.277344 C 51.917969 156.042969 52.292969 155.84375 52.683594 155.679688 C 53.074219 155.519531 53.480469 155.398438 53.894531 155.3125 C 54.3125 155.230469 54.734375 155.191406 55.15625 155.191406 C 56.21875 155.183594 57.273438 155.234375 58.328125 155.332031 C 59.382812 155.433594 60.433594 155.585938 61.472656 155.789062 C 62.511719 155.992188 63.539062 156.246094 64.554688 156.550781 C 65.570312 156.855469 66.566406 157.210938 67.546875 157.613281 C 68.527344 158.019531 69.484375 158.46875 70.417969 158.964844 C 71.355469 159.464844 72.261719 160.007812 73.144531 160.59375 C 74.027344 161.183594 74.878906 161.8125 75.695312 162.484375 C 76.515625 163.15625 77.300781 163.867188 78.050781 164.613281 C 78.800781 165.363281 79.511719 166.148438 80.183594 166.96875 C 80.855469 167.785156 81.484375 168.636719 82.070312 169.519531 C 82.660156 170.398438 83.203125 171.308594 83.699219 172.242188 C 84.199219 173.179688 84.648438 174.136719 85.054688 175.113281 C 85.457031 176.09375 85.8125 177.089844 86.117188 178.105469 C 86.421875 179.121094 86.675781 180.148438 86.878906 181.1875 C 87.082031 182.226562 87.234375 183.273438 87.335938 184.328125 C 87.433594 185.382812 87.484375 186.441406 87.480469 187.5 L 87.480469 232.863281 Z M 111.007812 256.257812 " fill-opacity="1" fill-rule="nonzero"/></g><path fill="#ffffff" d="M 93.941406 129.339844 L 68.085938 129.339844 C 67.660156 129.339844 67.242188 129.300781 66.824219 129.21875 C 66.410156 129.132812 66.003906 129.011719 65.613281 128.851562 C 65.21875 128.6875 64.847656 128.488281 64.496094 128.253906 C 64.140625 128.015625 63.816406 127.75 63.515625 127.449219 C 63.214844 127.148438 62.945312 126.824219 62.710938 126.46875 C 62.476562 126.117188 62.277344 125.746094 62.113281 125.351562 C 61.949219 124.960938 61.828125 124.554688 61.746094 124.140625 C 61.664062 123.722656 61.621094 123.304688 61.621094 122.878906 C 61.621094 122.457031 61.664062 122.035156 61.746094 121.617188 C 61.828125 121.203125 61.949219 120.796875 62.113281 120.40625 C 62.277344 120.015625 62.476562 119.640625 62.710938 119.289062 C 62.945312 118.9375 63.214844 118.609375 63.515625 118.308594 C 63.816406 118.011719 64.140625 117.742188 64.496094 117.507812 C 64.847656 117.269531 65.21875 117.070312 65.613281 116.910156 C 66.003906 116.746094 66.410156 116.625 66.824219 116.542969 C 67.242188 116.457031 67.660156 116.417969 68.085938 116.417969 L 93.941406 116.417969 C 94.367188 116.417969 94.789062 116.457031 95.203125 116.542969 C 95.621094 116.625 96.023438 116.746094 96.417969 116.910156 C 96.808594 117.070312 97.179688 117.269531 97.535156 117.507812 C 97.886719 117.742188 98.214844 118.011719 98.515625 118.308594 C 98.8125 118.609375 99.082031 118.9375 99.316406 119.289062 C 99.554688 119.640625 99.753906 120.015625 99.914062 120.40625 C 100.078125 120.796875 100.199219 121.203125 100.28125 121.617188 C 100.367188 122.035156 100.40625 122.457031 100.40625 122.878906 C 100.40625 123.304688 100.367188 123.722656 100.28125 124.140625 C 100.199219 124.554688 100.078125 124.960938 99.914062 125.351562 C 99.753906 125.746094 99.554688 126.117188 99.316406 126.46875 C 99.082031 126.824219 98.8125 127.148438 98.515625 127.449219 C 98.214844 127.75 97.886719 128.015625 97.535156 128.253906 C 97.179688 128.488281 96.808594 128.6875 96.417969 128.851562 C 96.023438 129.011719 95.621094 129.132812 95.203125 129.21875 C 94.789062 129.300781 94.367188 129.339844 93.941406 129.339844 Z M 93.941406 129.339844 " fill-opacity="1" fill-rule="nonzero"/><path fill="#ffffff" d="M 120.445312 65.367188 C 119.589844 65.378906 118.765625 65.214844 117.980469 64.875 C 117.191406 64.539062 116.503906 64.054688 115.921875 63.429688 L 97.5625 45.335938 C 97.257812 45.03125 96.984375 44.695312 96.746094 44.335938 C 96.503906 43.976562 96.300781 43.597656 96.136719 43.199219 C 95.96875 42.800781 95.847656 42.390625 95.761719 41.964844 C 95.675781 41.542969 95.636719 41.113281 95.636719 40.683594 C 95.636719 40.25 95.675781 39.820312 95.761719 39.398438 C 95.847656 38.976562 95.96875 38.5625 96.136719 38.164062 C 96.300781 37.765625 96.503906 37.386719 96.746094 37.027344 C 96.984375 36.667969 97.257812 36.335938 97.5625 36.03125 C 97.867188 35.722656 98.199219 35.453125 98.558594 35.210938 C 98.917969 34.972656 99.300781 34.769531 99.699219 34.601562 C 100.097656 34.4375 100.507812 34.3125 100.933594 34.230469 C 101.355469 34.144531 101.785156 34.101562 102.21875 34.101562 C 102.648438 34.101562 103.078125 34.144531 103.5 34.230469 C 103.925781 34.3125 104.335938 34.4375 104.734375 34.601562 C 105.136719 34.769531 105.515625 34.972656 105.875 35.210938 C 106.234375 35.453125 106.566406 35.722656 106.871094 36.03125 L 124.972656 54.382812 C 125.28125 54.671875 125.558594 54.988281 125.800781 55.335938 C 126.042969 55.683594 126.25 56.050781 126.417969 56.441406 C 126.589844 56.828125 126.714844 57.230469 126.800781 57.648438 C 126.886719 58.0625 126.929688 58.480469 126.929688 58.90625 C 126.929688 59.328125 126.886719 59.75 126.800781 60.164062 C 126.714844 60.578125 126.589844 60.980469 126.417969 61.371094 C 126.25 61.757812 126.042969 62.125 125.800781 62.472656 C 125.558594 62.820312 125.28125 63.136719 124.972656 63.429688 C 124.386719 64.054688 123.703125 64.539062 122.914062 64.875 C 122.125 65.214844 121.304688 65.378906 120.445312 65.367188 Z M 120.445312 65.367188 " fill-opacity="1" fill-rule="nonzero"/><path fill="#ffffff" d="M 184.441406 38.871094 C 184.019531 38.871094 183.597656 38.832031 183.183594 38.75 C 182.765625 38.664062 182.359375 38.542969 181.96875 38.382812 C 181.578125 38.21875 181.203125 38.019531 180.851562 37.785156 C 180.5 37.546875 180.171875 37.28125 179.871094 36.980469 C 179.570312 36.679688 179.304688 36.355469 179.066406 36 C 178.832031 35.648438 178.632812 35.277344 178.46875 34.882812 C 178.308594 34.492188 178.183594 34.085938 178.101562 33.671875 C 178.019531 33.253906 177.980469 32.835938 177.980469 32.410156 L 177.980469 6.5625 C 177.980469 6.136719 178.019531 5.71875 178.101562 5.300781 C 178.183594 4.886719 178.308594 4.480469 178.46875 4.089844 C 178.632812 3.699219 178.832031 3.324219 179.066406 2.972656 C 179.304688 2.621094 179.570312 2.292969 179.871094 1.992188 C 180.171875 1.691406 180.5 1.425781 180.851562 1.191406 C 181.203125 0.953125 181.578125 0.753906 181.96875 0.59375 C 182.359375 0.429688 182.765625 0.308594 183.183594 0.226562 C 183.597656 0.140625 184.019531 0.101562 184.441406 0.101562 C 184.867188 0.101562 185.289062 0.140625 185.703125 0.226562 C 186.121094 0.308594 186.523438 0.429688 186.917969 0.59375 C 187.308594 0.753906 187.679688 0.953125 188.035156 1.191406 C 188.386719 1.425781 188.714844 1.691406 189.015625 1.992188 C 189.3125 2.292969 189.582031 2.621094 189.816406 2.972656 C 190.054688 3.324219 190.253906 3.699219 190.414062 4.089844 C 190.578125 4.480469 190.699219 4.886719 190.78125 5.300781 C 190.867188 5.71875 190.90625 6.136719 190.90625 6.5625 L 190.90625 32.410156 C 190.90625 32.835938 190.867188 33.253906 190.78125 33.671875 C 190.699219 34.085938 190.578125 34.492188 190.414062 34.882812 C 190.253906 35.277344 190.054688 35.648438 189.816406 36 C 189.582031 36.355469 189.3125 36.679688 189.015625 36.980469 C 188.714844 37.28125 188.386719 37.546875 188.035156 37.785156 C 187.679688 38.019531 187.308594 38.21875 186.917969 38.382812 C 186.523438 38.542969 186.121094 38.664062 185.703125 38.75 C 185.289062 38.832031 184.867188 38.871094 184.441406 38.871094 Z M 184.441406 38.871094 " fill-opacity="1" fill-rule="nonzero"/><path fill="#ffffff" d="M 249.085938 65.367188 C 248.226562 65.378906 247.40625 65.214844 246.617188 64.875 C 245.828125 64.539062 245.144531 64.054688 244.5625 63.429688 C 244.25 63.136719 243.976562 62.820312 243.730469 62.472656 C 243.488281 62.125 243.28125 61.757812 243.113281 61.371094 C 242.945312 60.980469 242.816406 60.578125 242.730469 60.164062 C 242.644531 59.75 242.601562 59.328125 242.601562 58.90625 C 242.601562 58.480469 242.644531 58.0625 242.730469 57.648438 C 242.816406 57.230469 242.945312 56.828125 243.113281 56.441406 C 243.28125 56.050781 243.488281 55.683594 243.730469 55.335938 C 243.976562 54.988281 244.25 54.671875 244.5625 54.382812 L 262.015625 36.03125 C 262.316406 35.726562 262.644531 35.460938 262.996094 35.222656 C 263.351562 34.984375 263.726562 34.785156 264.121094 34.621094 C 264.515625 34.460938 264.917969 34.335938 265.335938 34.253906 C 265.753906 34.171875 266.175781 34.128906 266.605469 34.128906 C 267.03125 34.128906 267.453125 34.171875 267.871094 34.253906 C 268.289062 34.335938 268.695312 34.460938 269.085938 34.621094 C 269.480469 34.785156 269.855469 34.984375 270.210938 35.222656 C 270.5625 35.460938 270.890625 35.726562 271.195312 36.03125 C 271.496094 36.332031 271.765625 36.660156 272 37.011719 C 272.238281 37.367188 272.4375 37.742188 272.601562 38.132812 C 272.761719 38.527344 272.886719 38.933594 272.96875 39.351562 C 273.054688 39.769531 273.09375 40.191406 273.09375 40.617188 C 273.09375 41.042969 273.054688 41.464844 272.96875 41.882812 C 272.886719 42.300781 272.761719 42.707031 272.601562 43.101562 C 272.4375 43.496094 272.238281 43.867188 272 44.222656 C 271.765625 44.578125 271.496094 44.90625 271.195312 45.207031 L 252.964844 63.429688 C 252.378906 64.054688 251.695312 64.539062 250.90625 64.875 C 250.117188 65.214844 249.296875 65.378906 248.4375 65.367188 Z M 249.085938 65.367188 " fill-opacity="1" fill-rule="nonzero"/><path fill="#ffffff" d="M 300.800781 129.339844 L 274.941406 129.339844 C 274.519531 129.339844 274.097656 129.300781 273.683594 129.21875 C 273.265625 129.132812 272.859375 129.011719 272.46875 128.851562 C 272.078125 128.6875 271.703125 128.488281 271.351562 128.253906 C 271 128.015625 270.671875 127.75 270.371094 127.449219 C 270.070312 127.148438 269.804688 126.824219 269.566406 126.46875 C 269.332031 126.117188 269.132812 125.746094 268.96875 125.351562 C 268.808594 124.960938 268.683594 124.554688 268.601562 124.140625 C 268.519531 123.722656 268.480469 123.304688 268.480469 122.878906 C 268.480469 122.457031 268.519531 122.035156 268.601562 121.617188 C 268.683594 121.203125 268.808594 120.796875 268.96875 120.40625 C 269.132812 120.015625 269.332031 119.640625 269.566406 119.289062 C 269.804688 118.9375 270.070312 118.609375 270.371094 118.308594 C 270.671875 118.011719 271 117.742188 271.351562 117.507812 C 271.703125 117.269531 272.078125 117.070312 272.46875 116.910156 C 272.859375 116.746094 273.265625 116.625 273.683594 116.542969 C 274.097656 116.457031 274.519531 116.417969 274.941406 116.417969 L 300.800781 116.417969 C 301.222656 116.417969 301.644531 116.457031 302.0625 116.542969 C 302.476562 116.625 302.882812 116.746094 303.273438 116.910156 C 303.664062 117.070312 304.039062 117.269531 304.390625 117.507812 C 304.746094 117.742188 305.070312 118.011719 305.371094 118.308594 C 305.671875 118.609375 305.9375 118.9375 306.175781 119.289062 C 306.410156 119.640625 306.609375 120.015625 306.773438 120.40625 C 306.933594 120.796875 307.058594 121.203125 307.140625 121.617188 C 307.222656 122.035156 307.265625 122.457031 307.265625 122.878906 C 307.265625 123.304688 307.222656 123.722656 307.140625 124.140625 C 307.058594 124.554688 306.933594 124.960938 306.773438 125.351562 C 306.609375 125.746094 306.410156 126.117188 306.175781 126.46875 C 305.9375 126.824219 305.671875 127.148438 305.371094 127.449219 C 305.070312 127.75 304.746094 128.015625 304.390625 128.253906 C 304.039062 128.488281 303.664062 128.6875 303.273438 128.851562 C 302.882812 129.011719 302.476562 129.132812 302.0625 129.21875 C 301.644531 129.300781 301.222656 129.339844 300.800781 129.339844 Z M 300.800781 129.339844 " fill-opacity="1" fill-rule="nonzero"/><path fill="#ffffff" d="M 184.441406 232.734375 C 183.667969 232.859375 182.890625 232.859375 182.117188 232.734375 L 176.167969 230.277344 C 173.855469 229.359375 171.578125 228.359375 169.339844 227.269531 C 167.101562 226.179688 164.90625 225.007812 162.753906 223.757812 C 160.601562 222.503906 158.5 221.171875 156.449219 219.757812 C 154.398438 218.347656 152.402344 216.863281 150.464844 215.300781 C 148.523438 213.742188 146.648438 212.109375 144.828125 210.410156 C 143.011719 208.707031 141.261719 206.941406 139.578125 205.109375 C 137.890625 203.273438 136.277344 201.382812 134.738281 199.429688 C 133.195312 197.472656 131.726562 195.464844 130.335938 193.402344 C 128.945312 191.335938 127.632812 189.226562 126.398438 187.0625 C 125.164062 184.898438 124.015625 182.695312 122.949219 180.445312 C 121.878906 178.199219 120.898438 175.914062 120.003906 173.589844 C 119.105469 171.269531 118.300781 168.914062 117.578125 166.53125 C 116.859375 164.148438 116.230469 161.742188 115.691406 159.3125 C 115.152344 156.882812 114.707031 154.4375 114.351562 151.972656 C 113.996094 149.511719 113.734375 147.039062 113.5625 144.554688 C 113.394531 142.070312 113.320312 139.585938 113.335938 137.097656 L 113.335938 97.03125 C 113.332031 96.390625 113.417969 95.765625 113.605469 95.152344 C 113.789062 94.539062 114.058594 93.96875 114.417969 93.4375 C 114.773438 92.90625 115.203125 92.441406 115.703125 92.039062 C 116.199219 91.640625 116.75 91.320312 117.34375 91.085938 L 181.988281 65.238281 C 182.773438 64.914062 183.59375 64.753906 184.441406 64.753906 C 185.292969 64.753906 186.113281 64.914062 186.898438 65.238281 L 251.542969 91.085938 C 252.136719 91.320312 252.683594 91.640625 253.183594 92.039062 C 253.683594 92.441406 254.109375 92.90625 254.46875 93.4375 C 254.828125 93.96875 255.097656 94.539062 255.28125 95.152344 C 255.464844 95.765625 255.554688 96.390625 255.550781 97.03125 L 255.550781 137.097656 C 255.558594 139.578125 255.472656 142.054688 255.292969 144.527344 C 255.117188 147.003906 254.847656 149.46875 254.484375 151.921875 C 254.121094 154.375 253.667969 156.8125 253.121094 159.234375 C 252.578125 161.652344 251.945312 164.050781 251.21875 166.421875 C 250.496094 168.796875 249.683594 171.136719 248.785156 173.449219 C 247.886719 175.761719 246.902344 178.039062 245.832031 180.277344 C 244.761719 182.515625 243.609375 184.710938 242.378906 186.863281 C 241.144531 189.015625 239.832031 191.121094 238.441406 193.175781 C 237.050781 195.230469 235.582031 197.226562 234.042969 199.171875 C 232.503906 201.117188 230.890625 203.003906 229.210938 204.828125 C 227.527344 206.652344 225.78125 208.410156 223.96875 210.105469 C 222.152344 211.796875 220.28125 213.421875 218.34375 214.976562 C 216.410156 216.527344 214.421875 218.007812 212.375 219.414062 C 210.328125 220.816406 208.234375 222.144531 206.089844 223.390625 C 203.945312 224.640625 201.757812 225.808594 199.523438 226.890625 C 197.292969 227.976562 195.023438 228.976562 192.71875 229.890625 L 186.769531 232.347656 C 185.996094 232.46875 185.21875 232.46875 184.441406 232.347656 Z M 126.265625 101.425781 L 126.265625 137.097656 C 126.257812 139.257812 126.328125 141.417969 126.480469 143.574219 C 126.636719 145.730469 126.871094 147.875 127.183594 150.015625 C 127.496094 152.15625 127.890625 154.277344 128.363281 156.386719 C 128.835938 158.496094 129.386719 160.585938 130.015625 162.65625 C 130.648438 164.722656 131.351562 166.765625 132.132812 168.78125 C 132.917969 170.796875 133.773438 172.777344 134.703125 174.730469 C 135.632812 176.683594 136.636719 178.59375 137.707031 180.472656 C 138.78125 182.347656 139.925781 184.183594 141.136719 185.972656 C 142.347656 187.765625 143.621094 189.507812 144.964844 191.203125 C 146.304688 192.898438 147.707031 194.542969 149.171875 196.132812 C 150.636719 197.726562 152.15625 199.257812 153.734375 200.738281 C 155.3125 202.214844 156.945312 203.628906 158.628906 204.984375 C 160.316406 206.339844 162.046875 207.628906 163.828125 208.855469 C 165.613281 210.082031 167.4375 211.238281 169.304688 212.328125 C 171.171875 213.417969 173.078125 214.4375 175.023438 215.382812 C 176.964844 216.328125 178.941406 217.203125 180.953125 218 L 184.441406 219.292969 L 187.804688 218 C 189.816406 217.203125 191.796875 216.335938 193.742188 215.390625 C 195.691406 214.445312 197.601562 213.429688 199.472656 212.339844 C 201.34375 211.253906 203.167969 210.097656 204.953125 208.875 C 206.738281 207.648438 208.476562 206.359375 210.164062 205.007812 C 211.851562 203.652344 213.488281 202.238281 215.070312 200.761719 C 216.652344 199.285156 218.175781 197.75 219.644531 196.160156 C 221.109375 194.570312 222.515625 192.925781 223.859375 191.230469 C 225.203125 189.535156 226.484375 187.792969 227.695312 186 C 228.910156 184.210938 230.054688 182.375 231.132812 180.5 C 232.207031 178.621094 233.214844 176.707031 234.144531 174.753906 C 235.078125 172.800781 235.9375 170.820312 236.722656 168.800781 C 237.507812 166.785156 238.214844 164.742188 238.847656 162.671875 C 239.476562 160.605469 240.03125 158.511719 240.507812 156.402344 C 240.980469 154.292969 241.378906 152.167969 241.691406 150.027344 C 242.007812 147.886719 242.246094 145.738281 242.398438 143.578125 C 242.554688 141.421875 242.628906 139.257812 242.621094 137.097656 L 242.621094 101.425781 L 184.441406 78.160156 Z M 126.265625 101.425781 " fill-opacity="1" fill-rule="nonzero"/><path fill="#ffffff" d="M 171.515625 168.113281 C 170.65625 168.125 169.835938 167.960938 169.046875 167.625 C 168.257812 167.285156 167.574219 166.804688 166.988281 166.175781 L 154.0625 153.25 C 153.761719 152.953125 153.5 152.632812 153.265625 152.28125 C 153.03125 151.933594 152.835938 151.5625 152.671875 151.175781 C 152.511719 150.789062 152.390625 150.386719 152.308594 149.976562 C 152.226562 149.5625 152.1875 149.148438 152.1875 148.726562 C 152.1875 148.308594 152.226562 147.890625 152.308594 147.480469 C 152.390625 147.066406 152.511719 146.667969 152.671875 146.28125 C 152.835938 145.890625 153.03125 145.523438 153.265625 145.171875 C 153.5 144.824219 153.761719 144.5 154.0625 144.203125 C 154.359375 143.90625 154.679688 143.640625 155.03125 143.410156 C 155.378906 143.175781 155.75 142.976562 156.136719 142.816406 C 156.523438 142.65625 156.925781 142.535156 157.335938 142.453125 C 157.75 142.371094 158.164062 142.332031 158.585938 142.332031 C 159.003906 142.332031 159.421875 142.371094 159.835938 142.453125 C 160.246094 142.535156 160.644531 142.65625 161.035156 142.816406 C 161.421875 142.976562 161.792969 143.175781 162.140625 143.410156 C 162.492188 143.640625 162.8125 143.90625 163.109375 144.203125 L 171.515625 152.476562 L 205.773438 118.355469 C 206.070312 118.058594 206.394531 117.792969 206.746094 117.558594 C 207.09375 117.328125 207.460938 117.128906 207.851562 116.96875 C 208.238281 116.808594 208.640625 116.6875 209.050781 116.605469 C 209.464844 116.523438 209.878906 116.480469 210.300781 116.480469 C 210.71875 116.480469 211.136719 116.523438 211.546875 116.605469 C 211.960938 116.6875 212.359375 116.808594 212.75 116.96875 C 213.136719 117.128906 213.503906 117.328125 213.855469 117.558594 C 214.203125 117.792969 214.527344 118.058594 214.824219 118.355469 C 215.121094 118.652344 215.386719 118.976562 215.621094 119.324219 C 215.855469 119.675781 216.050781 120.042969 216.210938 120.429688 C 216.371094 120.820312 216.496094 121.21875 216.578125 121.632812 C 216.660156 122.042969 216.699219 122.460938 216.699219 122.878906 C 216.699219 123.300781 216.660156 123.714844 216.578125 124.128906 C 216.496094 124.539062 216.371094 124.941406 216.210938 125.328125 C 216.050781 125.714844 215.855469 126.085938 215.621094 126.433594 C 215.386719 126.78125 215.121094 127.105469 214.824219 127.402344 L 176.039062 166.175781 C 175.457031 166.804688 174.769531 167.285156 173.980469 167.625 C 173.195312 167.960938 172.371094 168.125 171.515625 168.113281 Z M 171.515625 168.113281 " fill-opacity="1" fill-rule="nonzero"/><path fill="#ffffff" d="M 80.550781 140.457031 C 80.550781 199.464844 128.609375 247.464844 187.679688 247.464844 C 246.75 247.464844 294.808594 199.464844 294.808594 140.457031 C 294.808594 81.453125 246.75 33.453125 187.679688 33.453125 C 128.609375 33.453125 80.550781 81.453125 80.550781 140.457031 Z M 187.679688 47.71875 C 238.875 47.71875 280.523438 89.324219 280.523438 140.457031 C 280.523438 191.597656 238.875 233.199219 187.679688 233.199219 C 136.484375 233.199219 94.835938 191.597656 94.835938 140.457031 C 94.835938 89.324219 136.484375 47.71875 187.679688 47.71875 " fill-opacity="1" fill-rule="nonzero"/><path fill="#ffffff" d="M 121.539062 127.742188 L 149.222656 154.984375 L 142.851562 193.277344 C 142.410156 195.945312 143.511719 198.628906 145.699219 200.21875 C 147.886719 201.808594 150.789062 202.019531 153.191406 200.78125 L 187.679688 182.886719 L 222.167969 200.78125 C 224.546875 202.011719 227.449219 201.820312 229.652344 200.21875 C 231.84375 198.628906 232.945312 195.941406 232.5 193.277344 L 226.132812 154.984375 L 253.816406 127.742188 C 255.746094 125.847656 256.433594 123.027344 255.59375 120.453125 C 254.757812 117.886719 252.542969 116.011719 249.863281 115.605469 L 211.449219 109.828125 L 194.066406 75.101562 C 192.859375 72.6875 190.382812 71.160156 187.679688 71.160156 C 184.972656 71.160156 182.503906 72.6875 181.292969 75.101562 L 163.910156 109.828125 L 125.492188 115.605469 C 122.816406 116.003906 120.597656 117.886719 119.761719 120.453125 C 118.921875 123.027344 119.617188 125.847656 121.539062 127.742188 Z M 169.703125 123.386719 C 172 123.042969 173.988281 121.601562 175.027344 119.523438 L 187.679688 94.246094 L 200.332031 119.523438 C 201.371094 121.601562 203.359375 123.042969 205.65625 123.386719 L 233.617188 127.589844 L 213.46875 147.414062 C 211.8125 149.046875 211.054688 151.378906 211.433594 153.671875 L 216.070312 181.539062 L 190.96875 168.519531 C 189.941406 167.988281 188.808594 167.71875 187.679688 167.71875 C 186.546875 167.71875 185.417969 167.988281 184.386719 168.519531 L 159.285156 181.539062 L 163.921875 153.671875 C 164.304688 151.378906 163.542969 149.046875 161.886719 147.414062 L 141.738281 127.589844 L 169.703125 123.386719 " fill-opacity="1" fill-rule="nonzero"/><g clip-path="url(#14cfab05c2)"><path fill="#ffffff" d="M 194.820312 12.050781 C 194.820312 15.992188 191.625 19.183594 187.679688 19.183594 C 183.734375 19.183594 180.539062 15.992188 180.539062 12.050781 C 180.539062 8.109375 183.734375 4.917969 187.679688 4.917969 C 191.625 4.917969 194.820312 8.109375 194.820312 12.050781 " fill-opacity="1" fill-rule="nonzero"/></g><g clip-path="url(#4fe20a641d)"><path fill="#ffffff" d="M 154.023438 9.121094 C 93.941406 24.441406 51.984375 78.445312 51.984375 140.457031 C 51.984375 178.972656 68.195312 215.265625 96.65625 240.964844 L 53.628906 316.710938 C 52.246094 319.144531 52.417969 322.167969 54.066406 324.429688 C 55.71875 326.695312 58.542969 327.785156 61.292969 327.214844 L 110.152344 317.082031 L 127.328125 365.417969 C 128.261719 368.050781 130.644531 369.890625 133.425781 370.136719 C 136.214844 370.386719 138.882812 368.984375 140.265625 366.558594 L 187.679688 283.292969 L 235.09375 366.558594 C 236.371094 368.800781 238.746094 370.164062 241.292969 370.164062 C 241.507812 370.164062 241.71875 370.15625 241.925781 370.136719 C 244.710938 369.890625 247.097656 368.046875 248.03125 365.417969 L 265.203125 317.082031 L 314.0625 327.214844 C 316.808594 327.78125 319.636719 326.695312 321.285156 324.429688 C 322.941406 322.167969 323.113281 319.144531 321.730469 316.710938 L 278.699219 240.964844 C 307.160156 215.265625 323.371094 178.972656 323.371094 140.457031 C 323.371094 78.445312 281.410156 24.441406 221.335938 9.121094 C 217.511719 8.148438 213.628906 10.449219 212.652344 14.269531 C 211.671875 18.085938 213.980469 21.972656 217.804688 22.945312 C 271.550781 36.652344 309.089844 84.976562 309.089844 140.457031 C 309.089844 207.988281 254.183594 261.734375 187.679688 261.734375 C 121.125 261.734375 66.269531 207.941406 66.269531 140.457031 C 66.269531 84.976562 103.804688 36.652344 157.550781 22.945312 C 161.375 21.972656 163.683594 18.085938 162.710938 14.269531 C 161.730469 10.449219 157.847656 8.148438 154.023438 9.121094 Z M 135.566406 345.953125 L 121.53125 306.445312 C 120.339844 303.082031 116.847656 301.121094 113.351562 301.84375 L 73.839844 310.039062 L 107.890625 250.09375 C 127.746094 264.511719 151.257812 273.296875 175.703125 275.46875 Z M 262.003906 301.84375 C 258.511719 301.121094 255.015625 303.082031 253.820312 306.445312 L 239.789062 345.953125 L 199.652344 275.46875 C 224.101562 273.296875 247.609375 264.511719 267.46875 250.09375 L 301.519531 310.039062 L 262.003906 301.84375 " fill-opacity="1" fill-rule="nonzero"/></g><path fill="#ffffff" d="M 104.867188 362.828125 C 103.554688 362.828125 102.246094 362.503906 101.042969 361.855469 L 79.265625 350.414062 L 57.503906 361.855469 C 54.726562 363.335938 51.382812 363.089844 48.851562 361.253906 C 46.324219 359.417969 45.058594 356.289062 45.582031 353.21875 L 49.730469 328.976562 L 32.117188 311.792969 C 29.882812 309.621094 29.082031 306.367188 30.035156 303.390625 C 30.992188 300.414062 33.566406 298.238281 36.667969 297.792969 L 61.019531 294.257812 L 71.894531 272.207031 C 74.667969 266.605469 83.84375 266.605469 86.621094 272.207031 L 97.523438 294.257812 L 121.847656 297.777344 C 124.945312 298.222656 127.507812 300.398438 128.476562 303.375 C 129.449219 306.351562 128.632812 309.605469 126.394531 311.777344 L 108.785156 328.960938 L 112.949219 353.203125 C 113.472656 356.273438 112.207031 359.402344 109.679688 361.222656 C 108.257812 362.289062 106.5625 362.828125 104.867188 362.828125 Z M 79.265625 332.9375 C 80.558594 332.9375 81.886719 333.246094 83.089844 333.878906 L 93.960938 339.601562 L 91.878906 327.496094 C 91.417969 324.84375 92.3125 322.113281 94.242188 320.214844 L 103.03125 311.65625 L 90.894531 309.882812 C 88.226562 309.496094 85.914062 307.800781 84.710938 305.394531 L 79.265625 294.367188 L 73.835938 305.394531 C 72.632812 307.800781 70.320312 309.496094 67.652344 309.882812 L 55.5 311.65625 L 64.289062 320.214844 C 66.21875 322.113281 67.113281 324.8125 66.648438 327.496094 L 64.597656 339.601562 L 75.457031 333.878906 C 76.644531 333.246094 77.953125 332.9375 79.265625 332.9375 Z M 79.265625 332.9375 " fill-opacity="1" fill-rule="nonzero"/><path fill="#ffffff" d="M 213.054688 362.828125 C 211.746094 362.828125 210.433594 362.503906 209.230469 361.855469 L 187.453125 350.414062 L 165.691406 361.855469 C 162.933594 363.335938 159.570312 363.089844 157.039062 361.253906 C 154.496094 359.417969 153.230469 356.289062 153.769531 353.21875 L 157.921875 328.976562 L 140.308594 311.792969 C 138.054688 309.621094 137.269531 306.367188 138.226562 303.390625 C 139.179688 300.414062 141.757812 298.238281 144.855469 297.792969 L 169.210938 294.257812 L 180.082031 272.207031 C 182.84375 266.605469 192.035156 266.605469 194.8125 272.207031 L 205.714844 294.257812 L 230.035156 297.792969 C 233.136719 298.238281 235.695312 300.414062 236.667969 303.390625 C 237.625 306.367188 236.820312 309.621094 234.585938 311.792969 L 216.972656 328.976562 L 221.152344 353.21875 C 221.675781 356.289062 220.410156 359.417969 217.882812 361.238281 C 216.449219 362.289062 214.753906 362.828125 213.054688 362.828125 Z M 187.453125 332.9375 C 188.765625 332.9375 190.074219 333.246094 191.277344 333.878906 L 202.136719 339.601562 L 200.054688 327.496094 C 199.605469 324.84375 200.484375 322.113281 202.414062 320.214844 L 211.203125 311.65625 L 199.066406 309.882812 C 196.398438 309.496094 194.085938 307.800781 192.898438 305.394531 L 187.453125 294.367188 L 182.027344 305.394531 C 180.824219 307.800781 178.507812 309.496094 175.839844 309.882812 L 163.6875 311.65625 L 172.464844 320.214844 C 174.390625 322.113281 175.285156 324.8125 174.824219 327.496094 L 172.789062 339.601562 L 183.644531 333.878906 C 184.832031 333.246094 186.144531 332.9375 187.453125 332.9375 Z M 187.453125 332.9375 " fill-opacity="1" fill-rule="nonzero"/><g clip-path="url(#c2a867dd64)"><path fill="#ffffff" d="M 57.164062 264.941406 C 58.769531 261.6875 61.175781 259.128906 63.917969 256.953125 C 48.558594 233.632812 39.550781 205.8125 39.550781 175.878906 C 39.550781 94.324219 105.898438 27.976562 187.4375 27.976562 C 268.992188 27.976562 335.339844 94.324219 335.339844 175.878906 C 335.339844 205.8125 326.335938 233.679688 310.972656 256.984375 C 313.71875 259.128906 316.125 261.6875 317.726562 264.941406 L 320.921875 271.355469 C 340.261719 244.429688 351.765625 211.503906 351.765625 175.878906 C 351.78125 85.269531 278.0625 11.566406 187.453125 11.566406 C 96.847656 11.566406 23.140625 85.269531 23.140625 175.878906 C 23.140625 211.503906 34.664062 244.398438 53.988281 271.355469 Z M 57.164062 264.941406 " fill-opacity="1" fill-rule="nonzero"/></g><path fill="#ffffff" d="M 321.261719 362.828125 C 319.949219 362.828125 318.636719 362.503906 317.433594 361.855469 L 295.660156 350.414062 L 273.898438 361.855469 C 271.136719 363.335938 267.773438 363.089844 265.246094 361.253906 C 262.699219 359.417969 261.4375 356.289062 261.976562 353.21875 L 266.125 328.976562 L 248.511719 311.792969 C 246.277344 309.621094 245.472656 306.367188 246.429688 303.390625 C 247.402344 300.414062 249.960938 298.238281 253.0625 297.792969 L 277.398438 294.257812 L 288.269531 272.207031 C 291.046875 266.605469 300.238281 266.605469 303 272.207031 L 313.902344 294.257812 L 338.226562 297.792969 C 341.324219 298.238281 343.886719 300.414062 344.855469 303.390625 C 345.828125 306.367188 345.027344 309.621094 342.773438 311.792969 L 325.160156 328.976562 L 329.324219 353.21875 C 329.851562 356.289062 328.585938 359.417969 326.054688 361.238281 C 324.652344 362.289062 322.957031 362.828125 321.261719 362.828125 Z M 295.660156 332.9375 C 296.96875 332.9375 298.28125 333.246094 299.484375 333.878906 L 310.355469 339.601562 L 308.273438 327.496094 C 307.8125 324.84375 308.707031 322.113281 310.632812 320.214844 L 319.425781 311.65625 L 307.289062 309.882812 C 304.617188 309.496094 302.304688 307.800781 301.101562 305.394531 L 295.660156 294.367188 L 290.230469 305.394531 C 289.027344 307.800781 286.714844 309.496094 284.046875 309.882812 L 271.890625 311.65625 L 280.683594 320.214844 C 282.609375 322.113281 283.503906 324.8125 283.042969 327.496094 L 280.976562 339.601562 L 291.832031 333.878906 C 293.035156 333.246094 294.332031 332.9375 295.660156 332.9375 Z M 295.660156 332.9375 " fill-opacity="1" fill-rule="nonzero"/><path fill="#ffffff" d="M 293.34375 178.175781 C 293.34375 172.730469 291.125 167.84375 287.609375 164.046875 C 290.292969 160.46875 291.804688 156.199219 291.804688 151.710938 C 291.789062 139.882812 281.640625 130.289062 269.179688 130.289062 C 269.179688 130.289062 269.179688 130.289062 269.164062 130.289062 L 206.949219 130.304688 C 208.304688 123.164062 209.894531 114.1875 210.1875 110.269531 C 211.40625 93.460938 212.902344 72.546875 195.78125 69.152344 C 180.222656 65.960938 170.335938 74.535156 165.738281 95.324219 C 162.839844 108.433594 155.777344 121.375 150.207031 130.226562 C 148.433594 125.9375 144.238281 122.933594 139.289062 122.933594 L 108.214844 122.933594 C 101.675781 122.933594 96.382812 128.238281 96.382812 134.777344 L 96.382812 237.148438 C 96.382812 243.6875 101.675781 248.996094 108.214844 248.996094 L 139.304688 248.996094 C 145.613281 248.996094 150.640625 244.027344 150.996094 237.84375 C 158.042969 244.890625 169.132812 252.480469 184.863281 252.480469 L 253.632812 252.480469 C 266.09375 252.480469 276.257812 242.871094 276.273438 231.027344 C 276.273438 227.589844 275.316406 224.394531 273.789062 221.511719 C 279.15625 217.59375 282.65625 211.503906 282.65625 204.59375 C 282.65625 201.972656 282.164062 199.457031 281.238281 197.128906 C 288.425781 193.535156 293.34375 186.378906 293.34375 178.175781 Z M 123.742188 231.058594 C 118.113281 231.058594 113.566406 226.476562 113.566406 220.878906 C 113.566406 215.25 118.113281 210.671875 123.742188 210.671875 C 129.371094 210.671875 133.921875 215.25 133.921875 220.878906 C 133.9375 226.476562 129.371094 231.058594 123.742188 231.058594 Z M 270.691406 183.171875 L 260.015625 183.171875 L 250.53125 183.203125 C 246 183.203125 242.328125 186.875 242.34375 191.421875 C 242.34375 195.941406 246.027344 199.613281 250.546875 199.613281 L 250.5625 199.613281 L 260.015625 199.597656 C 263.378906 199.613281 266.234375 201.894531 266.234375 204.578125 C 266.234375 207.355469 263.457031 209.605469 260.03125 209.605469 L 253.695312 209.605469 C 253.679688 209.605469 253.664062 209.605469 253.632812 209.605469 L 245.75 209.605469 C 241.21875 209.605469 237.546875 213.277344 237.53125 217.796875 C 237.53125 222.34375 241.203125 226.015625 245.734375 226.015625 L 253.648438 226.015625 C 256.996094 226.046875 259.816406 228.328125 259.832031 231.011719 C 259.832031 233.726562 256.980469 236.039062 253.617188 236.039062 L 184.847656 236.039062 C 169.195312 236.039062 160.078125 224.164062 157.289062 219.890625 L 157.289062 149.105469 C 162.390625 142.179688 176.875 121.128906 181.777344 98.886719 C 185.140625 83.742188 189.089844 84.546875 192.976562 85.179688 C 193.683594 86.085938 195.164062 90.265625 193.808594 109.097656 C 193.5 113.277344 190.648438 128.34375 188.917969 136.890625 C 188.425781 139.308594 189.042969 141.808594 190.617188 143.707031 C 192.171875 145.617188 194.503906 146.714844 196.96875 146.714844 L 269.164062 146.714844 C 272.523438 146.714844 275.363281 148.996094 275.363281 151.710938 C 275.363281 153.160156 274.605469 154.207031 273.972656 154.839844 C 272.785156 156.011719 271.058594 156.707031 269.164062 156.707031 C 269.164062 156.707031 269.148438 156.707031 269.148438 156.707031 L 255.28125 156.707031 C 250.75 156.707031 247.0625 160.378906 247.0625 164.894531 C 247.0625 169.445312 250.734375 173.117188 255.265625 173.117188 L 270.691406 173.132812 C 274.050781 173.132812 276.890625 175.429688 276.890625 178.128906 C 276.921875 180.90625 274.128906 183.171875 270.691406 183.171875 Z M 270.691406 183.171875 " fill-opacity="1" fill-rule="nonzero"/></svg>