<svg xmlns="http://www.w3.org/2000/svg" xmlns:xlink="http://www.w3.org/1999/xlink" width="500" zoomAndPan="magnify" viewBox="0 0 375 374.999991" height="500" preserveAspectRatio="xMidYMid meet" version="1.0"><defs><clipPath id="46c2bb7e0d"><path d="M 63.285156 352.386719 L 72.835938 352.386719 L 72.835938 375 L 63.285156 375 Z M 63.285156 352.386719 " clip-rule="nonzero"/></clipPath><clipPath id="e0d9f07af8"><path d="M 159.519531 29 L 367.425781 29 L 367.425781 255.335938 L 159.519531 255.335938 Z M 159.519531 29 " clip-rule="nonzero"/></clipPath></defs><path fill="#ffffff" d="M 90.816406 343.867188 L 98.652344 339.828125 L 108.828125 359.589844 L 100.992188 363.628906 L 90.816406 343.867188 " fill-opacity="1" fill-rule="nonzero"/><path fill="#ffffff" d="M 27.359375 359.589844 L 37.539062 339.828125 L 45.375 343.871094 L 35.199219 363.632812 L 27.359375 359.589844 " fill-opacity="1" fill-rule="nonzero"/><g clip-path="url(#46c2bb7e0d)"><path fill="#ffffff" d="M 63.410156 375.078125 L 63.96875 352.851562 L 72.78125 353.078125 L 72.222656 375.304688 L 63.410156 375.078125 " fill-opacity="1" fill-rule="nonzero"/></g><path fill="#ffffff" d="M 277.347656 10.789062 L 285.183594 6.746094 L 295.359375 26.507812 L 287.527344 30.550781 L 277.347656 10.789062 " fill-opacity="1" fill-rule="nonzero"/><path fill="#ffffff" d="M 340.800781 26.507812 L 350.980469 6.746094 L 358.816406 10.789062 L 348.636719 30.550781 L 340.800781 26.507812 " fill-opacity="1" fill-rule="nonzero"/><path fill="#ffffff" d="M 313.398438 17.300781 L 313.957031 -4.921875 L 322.769531 -4.703125 L 322.210938 17.523438 L 313.398438 17.300781 " fill-opacity="1" fill-rule="nonzero"/><path fill="#ffffff" d="M 339.746094 313.375 C 340.351562 313.394531 340.945312 313.222656 341.441406 312.875 L 341.128906 290.6875 L 242.195312 290.773438 L 242.519531 313.621094 C 243.03125 313.992188 243.652344 314.171875 244.285156 314.125 L 339.746094 313.375 " fill-opacity="1" fill-rule="nonzero"/><path fill="#ffffff" d="M 233.222656 323.289062 L 233.949219 371.875 L 351.714844 371.875 L 350.992188 322.34375 L 233.222656 323.289062 " fill-opacity="1" fill-rule="nonzero"/><path fill="#ffffff" d="M 349.910156 202.820312 L 337.011719 162.496094 C 336.257812 161.238281 334.886719 160.484375 333.417969 160.523438 C 330.089844 160.542969 326.984375 162.179688 325.082031 164.914062 C 322.464844 169.582031 321.492188 174.996094 322.324219 180.28125 C 323.390625 187.0625 326.21875 204.242188 327.535156 212.179688 C 327.945312 214.675781 328.210938 216.253906 328.21875 216.320312 L 328.789062 219.792969 L 325.535156 221.121094 C 323.070312 222.273438 320.757812 223.734375 318.660156 225.46875 L 318.652344 225.46875 C 315.738281 227.789062 313.285156 230.636719 311.410156 233.855469 C 309.585938 237.0625 307.839844 240.445312 306.214844 243.90625 L 298.238281 240.164062 C 299.480469 237.503906 300.800781 234.890625 302.167969 232.363281 L 238.578125 258.96875 C 238.996094 267.265625 242.355469 275.136719 248.046875 281.179688 L 248.058594 281.179688 C 248.292969 281.433594 248.535156 281.683594 248.78125 281.929688 L 336.445312 281.851562 C 336.746094 281.390625 337.054688 280.933594 337.347656 280.476562 C 339.917969 276.488281 342.117188 272.902344 342.144531 272.859375 L 342.226562 272.734375 C 342.988281 271.582031 343.550781 270.3125 343.898438 268.976562 L 356.296875 222.777344 L 352.609375 211.253906 L 349.910156 202.820312 " fill-opacity="1" fill-rule="nonzero"/><g clip-path="url(#e0d9f07af8)"><path fill="#ffffff" d="M 366.699219 185.609375 L 309.378906 48.421875 L 255.628906 70.914062 C 252.21875 72.328125 248.304688 70.707031 246.886719 67.292969 C 246.425781 66.179688 246.273438 64.957031 246.445312 63.765625 C 247.09375 59.296875 248.230469 48.214844 244.808594 41.746094 C 238.707031 30.359375 224.539062 26.078125 213.164062 32.179688 C 201.785156 38.289062 197.507812 52.464844 203.605469 63.851562 C 206.523438 69.296875 211.46875 73.363281 217.371094 75.167969 C 219.835938 75.902344 221.566406 78.117188 221.683594 80.691406 C 221.820312 83.28125 220.316406 85.679688 217.929688 86.6875 L 159.820312 110.6875 C 160.640625 111.628906 161.3125 112.691406 161.824219 113.832031 C 164.386719 119.5625 167.9375 127.5 171.574219 135.640625 C 173.585938 139.9375 175.566406 144.308594 177.3125 148.492188 C 177.3125 148.5 177.316406 148.5 177.316406 148.503906 C 179.214844 152.746094 180.992188 156.734375 182.519531 160.140625 C 190.667969 144.339844 210.078125 138.140625 225.871094 146.292969 C 239.488281 153.332031 246.261719 169.003906 242.054688 183.753906 C 242.054688 183.773438 242.046875 183.796875 242.039062 183.820312 C 242.015625 183.957031 241.980469 184.101562 241.941406 184.242188 C 241.152344 187.417969 239.886719 190.453125 238.1875 193.25 C 237.894531 193.742188 237.582031 194.230469 237.257812 194.707031 C 234.347656 198.980469 230.441406 202.484375 225.878906 204.910156 C 219.582031 208.25 211.199219 208.644531 203.972656 208.085938 L 223.570312 251.921875 C 224.054688 252.988281 224.394531 254.109375 224.59375 255.265625 L 229.621094 253.15625 L 238.371094 249.5 L 314.113281 217.808594 C 314.117188 217.804688 314.125 217.800781 314.128906 217.800781 C 315.675781 216.617188 317.296875 215.539062 318.992188 214.570312 C 317.761719 207.128906 314.730469 188.742188 313.613281 181.648438 C 312.480469 174.296875 313.867188 166.78125 317.550781 160.320312 L 317.632812 160.195312 C 321.210938 154.777344 327.320312 151.574219 333.808594 151.710938 C 338.527344 151.820312 342.808594 154.496094 344.980469 158.6875 L 345.15625 159.023438 L 358.074219 199.410156 L 361.664062 197.90625 C 366.445312 195.902344 368.699219 190.402344 366.703125 185.617188 C 366.699219 185.617188 366.699219 185.613281 366.699219 185.609375 " fill-opacity="1" fill-rule="nonzero"/></g><path fill="#ffffff" d="M 144.582031 54.1875 L 143.933594 3.820312 L 26.164062 3.820312 L 26.816406 55.132812 L 144.582031 54.1875 " fill-opacity="1" fill-rule="nonzero"/><path fill="#ffffff" d="M 38.054688 64.113281 C 37.453125 64.085938 36.855469 64.265625 36.359375 64.609375 L 36.667969 86.792969 L 36.679688 87.675781 C 37.1875 88.054688 37.816406 88.238281 38.441406 88.191406 L 133.703125 87.425781 L 133.789062 87.570312 L 133.910156 87.570312 C 134.511719 87.589844 135.109375 87.414062 135.605469 87.066406 L 135.28125 63.863281 C 134.773438 63.492188 134.148438 63.308594 133.519531 63.351562 L 38.054688 64.113281 " fill-opacity="1" fill-rule="nonzero"/><path fill="#ffffff" d="M 193.777344 206.878906 C 192.8125 204.730469 193.050781 202.234375 194.40625 200.308594 C 194.433594 200.261719 194.460938 200.21875 194.496094 200.175781 C 195.925781 198.242188 198.285156 197.222656 200.675781 197.507812 C 205.152344 198.042969 216.277344 198.910156 222.652344 195.324219 C 227.863281 192.367188 231.734375 187.515625 233.464844 181.78125 C 235.949219 171.101562 230.671875 160.132812 220.789062 155.410156 C 209.152344 149.828125 195.195312 154.75 189.621094 166.394531 C 189.117188 167.445312 188.691406 168.53125 188.351562 169.644531 C 187.351562 172.886719 183.914062 174.707031 180.667969 173.707031 C 178.929688 173.167969 177.515625 171.886719 176.8125 170.203125 C 174.992188 165.824219 172.199219 159.128906 169.121094 151.746094 C 169.105469 151.722656 169.089844 151.695312 169.085938 151.667969 C 163.792969 139.824219 157.660156 126.105469 153.78125 117.4375 C 153.363281 116.5 152.585938 115.769531 151.628906 115.40625 C 151.191406 115.234375 150.71875 115.144531 150.25 115.148438 C 149.707031 115.148438 149.171875 115.261719 148.675781 115.488281 L 147.851562 115.855469 L 139.257812 119.707031 L 73.28125 149.253906 C 69.636719 154.914062 64.667969 159.601562 58.804688 162.90625 C 60.035156 170.339844 63.070312 188.734375 64.179688 195.832031 C 65.324219 203.179688 63.933594 210.695312 60.242188 217.152344 L 60.167969 217.277344 C 56.726562 222.488281 50.941406 225.671875 44.695312 225.78125 C 44.460938 225.78125 44.226562 225.777344 43.988281 225.769531 C 39.273438 225.660156 34.984375 222.984375 32.808594 218.792969 L 32.636719 218.449219 L 18.367188 173.847656 L 14.480469 175.589844 C 9.746094 177.714844 7.625 183.277344 9.742188 188.015625 L 71.445312 325.992188 L 121.273438 303.679688 C 115.183594 298.996094 108.53125 292.511719 106.046875 285.195312 C 100.371094 268.339844 109.429688 250.066406 126.273438 244.390625 C 143.121094 238.710938 161.375 247.777344 167.046875 264.632812 C 169.03125 270.523438 169.269531 276.859375 167.734375 282.878906 C 180.308594 277.242188 200.730469 268.09375 212.800781 262.683594 C 215.523438 261.453125 216.742188 258.253906 215.527344 255.523438 L 193.777344 206.878906 " fill-opacity="1" fill-rule="nonzero"/><path fill="#ffffff" d="M 26.464844 170.222656 L 40.78125 214.984375 C 41.539062 216.242188 42.914062 216.996094 44.382812 216.953125 C 47.710938 216.941406 50.824219 215.296875 52.71875 212.558594 C 55.339844 207.894531 56.308594 202.480469 55.46875 197.199219 C 54.078125 188.289062 49.625 161.429688 49.578125 161.160156 L 49.375 159.957031 L 49.003906 157.691406 L 52.257812 156.347656 C 52.332031 156.320312 61.34375 152.472656 66.382812 143.613281 C 66.621094 143.203125 66.855469 142.785156 67.097656 142.359375 L 78.96875 137.035156 L 137.914062 110.640625 C 136.367188 105.277344 133.566406 100.359375 129.738281 96.292969 L 129.730469 96.292969 L 40.453125 96.996094 C 37.878906 100.980469 35.675781 104.578125 35.648438 104.621094 L 35.574219 104.746094 C 34.808594 105.894531 34.246094 107.167969 33.898438 108.503906 L 21.496094 154.695312 L 23.761719 161.761719 L 26.464844 170.222656 " fill-opacity="1" fill-rule="nonzero"/></svg>