<?xml version="1.0" encoding="UTF-8"?>
<svg id="Illustration" xmlns="http://www.w3.org/2000/svg" viewBox="0 0 3496.85 2863.66">
  <defs>
    <style>
      .cls-1, .cls-2 {
        fill: #616773;
      }

      .cls-3 {
        fill: #2b313c;
      }

      .cls-4 {
        fill: #fed0ca;
      }

      .cls-2 {
        opacity: .38;
      }

      .cls-5 {
        fill: #049db8;
      }

      .cls-6 {
        fill: #895e3b;
      }

      .cls-7 {
        fill: #ffbd0b;
      }

      .cls-8 {
        fill: #d3207a;
      }

      .cls-9 {
        fill: #4eb9d0;
      }

      .cls-10 {
        fill: #c40565;
      }

      .cls-11 {
        fill: #374151;
      }

      .cls-12 {
        fill: #dcf1f6;
      }

      .cls-13 {
        fill: #fff;
        opacity: .58;
      }

      .cls-14 {
        fill: #f7afa0;
      }

      .cls-15 {
        fill: #a4a5a5;
      }
    </style>
  </defs>
  <path class="cls-12" d="m2121.71,58.5c-911.63-135.35-856.56,510.88-802.82,936.84,42.46,339.04-772.3,376.86-1165.08,748.41-392.78,371.55,147.96,767.65,1393.32,934.19,952.77,127.39,1573.12-242.84,1811.32-594.48,217.62-320.46,89.57-706.61-14.6-957.41-129.38-310.51-293.26-928.88-1222.14-1067.55Z"/>
  <path class="cls-9" d="m2412.41,694.92c-37.76-66.33-66.82-155.52-7.47-222.29,107.19-120.58,321.56-147.38,375.15,40.2,22.17,77.59,6.51,137.9-19.47,181.95-24.07,40.8,5.6,92.21,52.97,92.21h341.65v455.85c0,41.16-46.25,64.72-80.06,41.25-229.2-159.08-348.71,28.56-348.96,113.01-.28,93.79,40.48,314.86,187.86,308.15,67.35-3.06,123.51-25.7,164.64-49.4,34.06-19.62,76.53,4.27,76.53,43.58v424.88h-353.57c-41.98,0-67.02,46.36-44.18,81.59,26.24,40.47,48.2,99.15,49.4,182.66,3.05,212.58-321.56,174.18-401.94,107.19-57.42-47.85-59.78-201.28-15.08-296.17,16.52-35.06-10.65-75.26-49.4-75.26h-344.16v-464.95c0-33.89-36.81-54.74-65.95-37.42-59.23,35.2-150.72,79.33-242.2,83.3-154.08,6.7-174.18-167.47-180.88-301.46-5.92-118.33,219.69-309.89,397.77-193.11,29.18,19.13,89.07,47.13,89.07,12.24v-435.94h365.22c47.29,0,76.49-50.97,53.09-92.08Z"/>
  <path class="cls-5" d="m695.95,1639.96c-39.98,26.83-92.75,52.93-152.23,58.88-131.7,13.17-184.38-131.7-190.97-256.82-6.58-125.12,105.36-243.65,204.14-230.48,46.52,6.2,97.43,35.78,138.27,65.33,32.98,23.87,79.04.4,79.04-40.32v-449.39h454.64c37.89,0,63-39.13,47.17-73.55-35.67-77.53-75.74-195.34-19.86-246.19,86.84-79.02,321.44-79.02,360.95,39.51,22.12,66.37-7.93,146.22-38.67,203.65-18.53,34.62,6.48,76.4,45.74,76.4h388.03v416.19c0,44.4-50.21,71.99-86.42,46.29-167.85-119.13-351.16,6.53-367.96,146.47-19.76,164.63,85.61,302.91,197.56,289.75,56.85-6.69,122.18-38.85,172.73-68.88,37.12-22.06,84.1,4.43,84.1,47.62v459.69h-446.93c-51.14,0-85.34-53.34-63.18-99.43,26.42-54.92,134.67-122.34,128.17-174.37-13.17-105.36-247.76-131.43-374.12-111.81-96.44,14.97-48.5,165.83,6.31,286.73,21.01,46.34-12.45,98.88-63.33,98.88h-424.93v-443.21c0-40.23-44.84-63.35-78.25-40.93Z"/>
  <g>
    <g>
      <g>
        <path class="cls-6" d="m1581.97,1459.16s-15.66-41.23-33.96-37.46c-18.3,3.78-38.31,17.83-38.31,17.83l-29.39,39.75s82.51,32.5,111.52,13.88c0,0,84.27,14.56,190.7-2.9-15.41-32.53-24.59-65.09-29.98-90.36-53.9,30.51-111.96,53.3-170.58,59.26Z"/>
        <path class="cls-7" d="m2028.37,1160.09s-120.66,151.97-275.83,239.8c5.39,25.28,14.57,57.84,29.98,90.36,80.49-13.21,173.65-44.73,252.63-114.77l-6.78-215.39Z"/>
      </g>
      <path class="cls-7" d="m2178.85,1833.67c-23.6-112.08-47.19-176.97-126.2-389.42-24.86-66.86-47.44-134.5-36.53-204.99l12.26-79.17s153.55-51.96,323.75-2.19c0,0,232.21,100.88,74.49,599.08-71.09,79.54-154.3,102.21-247.76,76.69Z"/>
      <path class="cls-6" d="m2054.51,1059.05l39.81,95.65c2.52,6.04,7.95,10.35,14.4,11.45,22.95,3.94,78.47,10.09,114.94-13.89,4.34-2.86,5.45-8.76,2.48-13.03l-73.56-105.61-98.07,25.42Z"/>
      <g>
        <path class="cls-6" d="m2095.69,912.7c-1.67,1.57-70.57,136.87-70.57,136.87l78.09,37.7,84.35-118.53s-63.88-82.39-91.87-56.04Z"/>
        <path class="cls-11" d="m2152.07,982.96l-38.95,64.92c-.59.99-1.29,1.88-2.14,2.66-4.64,4.32-20.5,16.87-32.76-.22-10.45-14.57-20.26-27.81-30.77-33.27-6.14-3.19-13.69-.64-16.8,5.53-6.42,12.72-18.85,38.64-26.65,63.23-1.96,6.16,1.22,12.78,7.21,15.2,15.81,6.41,47.06,17.99,74.8,21.82,4.56.63,9.07-1.29,11.78-5.01,11.93-16.35,45.56-62.02,57.04-73.46,10.66-10.62,30.34-6.62,39.21-4.07,3.37.97,6.95.5,9.95-1.3,9-5.42,24.7-18.91,10.33-41.76-3.57-5.68-1.75-13.25,3.86-16.93,10.05-6.61,20.95-19.01,10.56-39.1-10.51-20.33-29.29-22.16-42.07-20.6-5.66.69-11.4-2.28-13.57-7.55-.97-2.34-2.87-4.34-6.43-5.06-6.7-1.36-11.1-7.49-9.78-14.2,2.25-11.51.56-26.45-17.81-36.55-33.69-18.53-63.21,11.66-70.71,37.14-7.51,25.48,30.17,43.49,53.86,46.49,17.41,2.21,26.95,21.21,30.79,31.14,1.39,3.6,1.05,7.63-.94,10.94Z"/>
        <path class="cls-6" d="m2138.42,1063.81s16.76-39.43,35.94-37.82c19.18,1.61,34.27,20.71,10.5,42.19-29.56,26.72-46.44-4.37-46.44-4.37Z"/>
      </g>
      <g>
        <path class="cls-11" d="m2163.73,2821.46c37.08,3.21,101.45,8.41,152.19,10.65,30.5,1.34,48.06-1.64,58.17-5.69-.02,1.14-.05,2.22-.09,3.22-.24,5.34-4.58,9.61-9.97,9.91-95.88,5.35-172.13,1.85-199.27.2-5.61-.34-8.96-6.44-6.09-11.23,1.44-2.39,3.18-4.74,5.06-7.06Z"/>
        <path class="cls-9" d="m2315.92,2832.11c-50.74-2.23-115.1-7.44-152.19-10.65,36.46-44.73,152.19-74.88,152.19-74.88h32.68c22.48,32.4,25.73,63.26,25.49,79.84-10.11,4.05-27.67,7.03-58.17,5.69Z"/>
        <path class="cls-6" d="m2354.11,2693.22l-3.06,60.53c-.33,6.55-5.24,12.06-11.8,13-6.53.93-15.28,1.05-24.55-2.03-5.71-1.9-9.94-6.71-11-12.57l-10.57-58.92h60.98Z"/>
      </g>
      <g>
        <g>
          <path class="cls-11" d="m2778.64,2831.65c16.08-2.24,23.36-10.6,26.41-19.53.02.08.04.16.06.24,2.37,9.42-3.12,19.18-14.08,23.83-13.26,5.61-27.75,6.57-39,6.11-12.07-.5-23.15-5.49-29.24-13.49l-.09-.12c12.12,6,29.12,6.7,55.94,2.96Z"/>
          <path class="cls-9" d="m2702.82,2692.83h26.95c41.06-.84,66.84,85.76,75.28,119.29-3.05,8.93-10.33,17.29-26.41,19.53-26.82,3.74-43.83,3.04-55.94-2.96-22.18-29.19-33.18-71.94-38.46-96.89-6.01-28.38,18.58-38.97,18.58-38.97Z"/>
        </g>
        <path class="cls-6" d="m2726.31,2636.66l14.97,59.53c1.84,7.3-1.66,14.85-8.41,18.31-8.37,4.3-20.16,8.81-31,7.51-5.1-.61-9.33-4.2-11.01-9l-21.97-62.63,57.42-13.71Z"/>
      </g>
      <path class="cls-11" d="m2744.16,2653.86c-18.62,16.52-79.19,18.7-79.19,18.7-218.18-523.66-309.15-667.82-309.15-667.82,31.5,197.65,6.79,705,6.79,705-36,15.89-82.42,0-82.42,0-2.92-323.59-48.48-671.29-107.24-893.77,147.47-3.31,227.61-35.46,253.21-55.71,122.92,198.17,318,893.61,318,893.61Z"/>
      <g>
        <path class="cls-15" d="m2135.8,1962.31l27.13,168.77c4.73,29.43,31.99,49.84,61.72,46.22l406.12-49.54c19.87-2.42,34.93-19.01,35.33-38.93.87-43.61-.84-121.22-19.15-191.93l-511.16,65.41Z"/>
        <path class="cls-11" d="m2236.02,2166.08c-.58,0-1.08-.43-1.15-1.02-.08-.64.38-1.21,1.01-1.29l9.19-1.12c.66-.1,1.21.38,1.29,1.01.08.64-.38,1.21-1.01,1.29l-9.19,1.12s-.1,0-.14,0Zm-21.48-.53c-.08,0-.17,0-.26-.03-3.06-.69-6.09-1.67-9-2.89-.59-.25-.87-.93-.62-1.52.25-.59.94-.87,1.52-.62,2.78,1.17,5.68,2.1,8.61,2.77.62.14,1.01.76.87,1.39-.12.54-.6.9-1.13.9Zm52.13-3.21c-.58,0-1.08-.43-1.15-1.02-.08-.64.38-1.21,1.01-1.29l9.19-1.12c.61-.08,1.21.38,1.29,1.01.08.63-.38,1.21-1.01,1.29l-9.2,1.12s-.09,0-.14,0Zm30.65-3.74c-.58,0-1.08-.43-1.15-1.02-.08-.64.38-1.21,1.01-1.29l9.19-1.12c.66-.09,1.21.37,1.29,1.01.08.64-.38,1.21-1.01,1.29l-9.19,1.12s-.1,0-.14,0Zm30.65-3.74c-.58,0-1.08-.43-1.15-1.02-.08-.63.38-1.21,1.01-1.29l9.19-1.12c.66-.11,1.21.38,1.29,1.01.08.64-.38,1.21-1.01,1.29l-9.19,1.12s-.1,0-.14,0Zm30.65-3.74c-.58,0-1.08-.43-1.15-1.02-.08-.64.38-1.21,1.01-1.29l9.19-1.12c.66-.07,1.21.38,1.29,1.01.08.64-.38,1.21-1.01,1.29l-9.19,1.12s-.1,0-.14,0Zm-170.56-.57c-.3,0-.61-.12-.84-.36-2.18-2.27-4.17-4.75-5.92-7.36-.36-.53-.21-1.25.32-1.61.52-.36,1.25-.22,1.61.32,1.68,2.5,3.58,4.87,5.67,7.05.44.46.43,1.19-.03,1.64-.23.21-.51.32-.8.32Zm201.21-3.17c-.58,0-1.08-.43-1.15-1.02-.08-.64.38-1.21,1.01-1.29l9.19-1.12c.66-.09,1.21.38,1.29,1.01.08.64-.38,1.21-1.01,1.29l-9.19,1.12s-.1,0-.14,0Zm30.65-3.74c-.58,0-1.08-.43-1.15-1.02-.08-.64.38-1.21,1.01-1.29l9.19-1.12c.61-.1,1.21.38,1.29,1.01.08.63-.38,1.21-1.01,1.29l-9.19,1.12s-.09,0-.14,0Zm30.65-3.74c-.58,0-1.08-.43-1.15-1.02-.08-.64.38-1.21,1.01-1.29l9.19-1.12c.65-.07,1.21.38,1.29,1.01.08.64-.38,1.21-1.01,1.29l-9.19,1.12s-.1,0-.14,0Zm30.65-3.74c-.58,0-1.08-.43-1.15-1.02-.08-.63.38-1.21,1.01-1.29l9.19-1.12c.65-.09,1.21.38,1.29,1.01.08.64-.38,1.21-1.01,1.29l-9.19,1.12s-.1,0-.14,0Zm30.65-3.74c-.58,0-1.08-.43-1.15-1.02-.08-.64.38-1.21,1.01-1.29l9.19-1.12c.65-.1,1.21.38,1.29,1.01.08.64-.38,1.21-1.01,1.29l-9.19,1.12s-.1,0-.14,0Zm30.65-3.74c-.58,0-1.08-.43-1.15-1.02-.08-.64.38-1.21,1.01-1.29l9.19-1.12c.65-.07,1.21.38,1.29,1.01.08.64-.38,1.21-1.01,1.29l-9.19,1.12s-.1,0-.14,0Zm30.65-3.74c-.58,0-1.08-.43-1.15-1.02-.08-.64.38-1.21,1.01-1.29l9.19-1.12c.65-.09,1.21.38,1.29,1.01.08.63-.38,1.21-1.01,1.29l-9.19,1.12s-.09,0-.14,0Zm-398.93-1.51c-.55,0-1.04-.39-1.14-.96l-1.48-9.16c-.1-.63.33-1.22.96-1.33.64-.11,1.22.33,1.33.96l1.48,9.13c.11.63-.31,1.23-.94,1.34-.07.01-.13.02-.2.02Zm429.58-2.23c-.58,0-1.08-.43-1.15-1.02-.08-.64.38-1.21,1.01-1.29l9.19-1.12c.65-.1,1.21.38,1.29,1.01.08.64-.38,1.21-1.01,1.29l-9.19,1.12s-.1,0-.14,0Zm29.89-6.66c-.4,0-.79-.21-1-.59-.32-.55-.13-1.26.43-1.58,2.6-1.48,5.01-3.29,7.18-5.35.47-.44,1.2-.42,1.64.04.44.46.42,1.2-.04,1.64-2.31,2.2-4.88,4.11-7.64,5.68-.18.11-.38.15-.57.15Zm-464.38-21.6c-.56,0-1.05-.4-1.14-.97l-1.47-9.15c-.1-.63.33-1.22.96-1.33.66-.12,1.22.33,1.33.96l1.47,9.15c.1.63-.33,1.22-.96,1.33-.06,0-.13.02-.18.02Zm482.51-2.35c-.09,0-.18-.01-.28-.04-.62-.15-1-.78-.85-1.4.65-2.63,1-5.36,1.06-8.09l.02-.83c0-.64.53-1.15,1.16-1.15h.01c.64,0,1.15.53,1.15,1.17l-.02.85c-.06,2.9-.44,5.79-1.13,8.59-.13.53-.6.88-1.12.88Zm-487.41-28.13c-.56,0-1.05-.4-1.14-.97l-1.47-9.15c-.1-.63.33-1.22.96-1.33.65-.1,1.22.33,1.33.96l1.47,9.15c.1.63-.33,1.22-.96,1.33-.06,0-.13.02-.18.02Zm488.66-2.65c-.64,0-1.15-.51-1.16-1.15-.02-2.99-.05-6.08-.11-9.25,0-.64.5-1.17,1.14-1.18.61-.11,1.17.5,1.18,1.14.06,3.18.09,6.27.11,9.28,0,.64-.51,1.16-1.15,1.17h0Zm-493.56-27.83c-.56,0-1.05-.4-1.14-.97l-1.47-9.15c-.1-.63.33-1.22.96-1.33.67-.11,1.23.33,1.33.96l1.47,9.15c.1.63-.33,1.22-.96,1.33-.06,0-.13.02-.18.02Zm492.82-3.05c-.62,0-1.13-.49-1.16-1.11-.13-3.04-.27-6.12-.44-9.24-.04-.64.45-1.19,1.09-1.22.72-.07,1.18.46,1.22,1.09.17,3.13.31,6.23.44,9.27.03.64-.47,1.18-1.11,1.2-.02,0-.03,0-.05,0Zm-497.72-27.44c-.56,0-1.05-.4-1.14-.97l-1.47-9.15c-.1-.63.33-1.22.96-1.33.65-.09,1.22.33,1.33.96l1.47,9.15c.1.63-.33,1.22-.96,1.33-.06,0-.13.02-.18.02Zm495.84-3.39c-.6,0-1.11-.46-1.16-1.07-.24-3.05-.51-6.12-.8-9.22-.06-.64.41-1.2,1.05-1.26.68-.07,1.2.41,1.26,1.05.29,3.1.55,6.19.8,9.24.05.64-.42,1.19-1.06,1.25-.03,0-.06,0-.09,0Zm-500.74-27.1c-.56,0-1.05-.4-1.14-.97l-1.66-10.33,4.77-.61c.72-.07,1.21.37,1.3,1,.08.64-.37,1.21-1,1.3l-2.4.31,1.28,7.96c.1.63-.33,1.22-.96,1.33-.06,0-.13.02-.18.02Zm497.6-3.62c-.58,0-1.08-.43-1.15-1.01-.38-3.05-.79-6.1-1.21-9.17-.09-.63.35-1.22.99-1.3.6-.14,1.22.35,1.3.99.43,3.08.83,6.15,1.21,9.2.08.64-.37,1.21-1,1.29-.05,0-.1,0-.14,0Zm-474.05-8.72c-.58,0-1.07-.43-1.15-1.01-.08-.64.37-1.21,1-1.3l9.18-1.18c.71-.1,1.21.37,1.3,1,.08.64-.37,1.21-1,1.3l-9.19,1.18c-.05,0-.1,0-.15,0Zm30.63-3.92c-.58,0-1.07-.43-1.15-1.01-.08-.64.37-1.21,1-1.3l9.19-1.18c.7-.1,1.22.37,1.3,1,.08.64-.37,1.21-1,1.3l-9.19,1.18c-.05,0-.1,0-.15,0Zm30.63-3.92c-.58,0-1.07-.43-1.15-1.01-.08-.64.37-1.21,1-1.3l9.19-1.18c.7-.09,1.22.38,1.3,1,.08.64-.37,1.21-1,1.3l-9.19,1.18c-.05,0-.1,0-.15,0Zm30.63-3.92c-.58,0-1.07-.43-1.15-1.01-.08-.64.37-1.21,1-1.3l9.19-1.18c.74-.08,1.21.37,1.3,1,.08.64-.37,1.21-1,1.3l-9.19,1.18c-.05,0-.1,0-.15,0Zm30.63-3.92c-.58,0-1.07-.43-1.15-1.01-.08-.64.37-1.21,1-1.3l9.19-1.18c.73-.07,1.21.37,1.3,1,.08.64-.37,1.21-1,1.3l-9.19,1.18c-.05,0-.1,0-.15,0Zm30.63-3.92c-.58,0-1.07-.43-1.15-1.01-.08-.64.37-1.21,1-1.3l9.19-1.18c.72-.06,1.21.37,1.3,1,.08.64-.37,1.21-1,1.3l-9.19,1.18c-.05,0-.1,0-.15,0Zm316.34-2.22c-.55,0-1.04-.4-1.14-.96-.54-3.03-1.1-6.06-1.69-9.09-.12-.63.29-1.23.92-1.36.62-.14,1.23.29,1.36.92.6,3.04,1.16,6.08,1.7,9.13.11.63-.31,1.23-.94,1.34-.07.01-.14.02-.2.02Zm-285.71-1.7c-.58,0-1.07-.43-1.15-1.01-.08-.64.37-1.21,1-1.3l9.19-1.18c.72-.1,1.21.37,1.3,1,.08.64-.37,1.21-1,1.3l-9.19,1.18c-.05,0-.1,0-.15,0Zm30.63-3.92c-.58,0-1.07-.43-1.15-1.01-.08-.64.37-1.21,1-1.3l9.19-1.18c.71-.09,1.21.37,1.3,1,.08.64-.37,1.21-1,1.3l-9.19,1.18c-.05,0-.1,0-.15,0Zm30.63-3.92c-.58,0-1.07-.43-1.15-1.01-.08-.64.37-1.21,1-1.3l9.19-1.18c.71-.08,1.22.37,1.3,1,.08.64-.37,1.21-1,1.3l-9.19,1.18c-.05,0-.1,0-.15,0Zm30.63-3.92c-.58,0-1.07-.43-1.15-1.01-.08-.64.37-1.21,1-1.3l9.19-1.18c.7-.08,1.22.37,1.3,1,.08.64-.37,1.21-1,1.3l-9.19,1.18c-.05,0-.1,0-.15,0Zm30.63-3.92c-.58,0-1.07-.43-1.15-1.01-.08-.64.37-1.21,1-1.3l9.19-1.18c.7-.07,1.22.37,1.3,1,.08.64-.37,1.21-1,1.3l-9.19,1.18c-.05,0-.1,0-.15,0Zm30.63-3.92c-.58,0-1.07-.43-1.15-1.01-.08-.64.37-1.21,1-1.3l9.19-1.18c.74-.1,1.21.37,1.3,1,.08.64-.37,1.21-1,1.3l-9.19,1.18c-.05,0-.1,0-.15,0Zm30.63-3.92c-.58,0-1.07-.43-1.15-1.01-.08-.64.37-1.21,1-1.3l9.19-1.18c.73-.09,1.21.37,1.3,1,.08.64-.37,1.21-1,1.3l-9.19,1.18c-.05,0-.1,0-.15,0Zm30.63-3.92c-.58,0-1.07-.43-1.15-1.01-.08-.64.37-1.21,1-1.3l9.19-1.18c.73-.09,1.21.38,1.3,1,.08.64-.37,1.21-1,1.3l-9.19,1.18c-.05,0-.1,0-.15,0Zm65.04-1.1c-.52,0-1-.36-1.13-.89-.48-2-.98-4-1.49-6l-1.01.13c-.66.1-1.21-.37-1.3-1-.08-.64.37-1.21,1-1.3l3.04-.39.25.99c.61,2.33,1.19,4.67,1.76,7.02.15.62-.23,1.25-.85,1.4-.09.02-.18.03-.27.03Zm-34.41-2.82c-.58,0-1.07-.43-1.15-1.01-.08-.64.37-1.21,1-1.3l9.19-1.18c.72-.08,1.21.37,1.3,1,.08.64-.37,1.21-1,1.3l-9.19,1.18c-.05,0-.1,0-.15,0Z"/>
        <path class="cls-1" d="m2238.99,1824.06l-.45-13.23c.98-3.3,3.56-5.87,6.87-6.84,12.39-3.63,43.29-11.18,59.83-1.83l4.2,14.9-70.45,7Z"/>
        <path class="cls-11" d="m2276.87,1806.43c-2.82,1.08-5.74,1.45-8.75,1.11-3.65-.42-6.54-3.26-7.01-6.88l-5.24-40.93,20.83-2.67,5.23,40.89c.47,3.64-1.62,7.15-5.07,8.47Z"/>
        <path class="cls-1" d="m2440.71,1798.25l-.45-13.23c.98-3.3,3.56-5.87,6.87-6.84,12.39-3.63,43.29-11.18,59.83-1.83l4.2,14.9-70.45,7Z"/>
        <path class="cls-11" d="m2478.6,1780.62c-2.82,1.08-5.74,1.45-8.75,1.11-3.65-.42-6.54-3.26-7.01-6.88l-5.79-45.24,20.83-2.67,5.78,45.21c.47,3.64-1.62,7.15-5.07,8.47Z"/>
        <path class="cls-11" d="m2255.05,1770.04l223.03-36.08c5.09-.82,8.95-5.06,9.18-10.18.33-7.17.07-17.8-2.94-28.48-3.42-12.14-15.24-19.97-27.84-18.66-41.91,4.35-148.28,17.99-203.94,48.69-5.89,3.25-9.81,9.13-10.55,15.79-.71,6.35-.65,14.7,2.37,22.81,1.61,4.31,6.11,6.85,10.68,6.11Z"/>
        <path class="cls-13" d="m2249.55,1761c-1.4,0-2.67-.96-3.01-2.39-.08-.37-2.06-9.05-.85-17.81.97-7.09,5.68-13.29,12.3-16.18,12.1-5.3,35.33-14.65,54.98-17.72,1.69-.24,3.27.89,3.53,2.57.26,1.69-.89,3.27-2.57,3.53-19.67,3.08-43.94,13.11-53.46,17.28-4.65,2.04-7.97,6.39-8.65,11.37-1.06,7.65.73,15.5.75,15.57.39,1.66-.65,3.32-2.31,3.71-.23.05-.47.08-.7.08Z"/>
        <path class="cls-11" d="m2134.42,1832.27c72.24-10.18,384.85-53.53,477.18-54.19,7.95-.06,15.07,4.85,17.75,12.3,8.48,23.6,26.51,78.65,32.39,134.74.8,7.63-3.96,14.77-11.29,17.15l-202.53,65.83-73.73,9.43-226.78-15.66c-7.99-.55-14.58-6.42-16-14.27-5.04-27.96-15.73-93.7-13.56-137.17.46-9.24,7.38-16.87,16.58-18.17Z"/>
        <path class="cls-2" d="m2373.65,2000.59s-.05,0-.08,0l-9.24-.64c-.64-.05-1.12-.6-1.08-1.23.05-.64.61-1.02,1.23-1.08l9.24.64c.64.05,1.12.6,1.08,1.23-.04.61-.55,1.08-1.16,1.08Zm8.44-1.08c-.58,0-1.07-.43-1.15-1.01-.08-.64.37-1.21,1-1.3l9.19-1.18c.73-.1,1.21.37,1.3,1,.08.64-.37,1.21-1,1.3l-9.19,1.18c-.05,0-.1,0-.15,0Zm-39.25-1.05s-.05,0-.08,0l-9.24-.64c-.64-.05-1.12-.6-1.08-1.23.05-.64.6-1.03,1.23-1.08l9.24.64c.64.05,1.12.6,1.08,1.23-.04.61-.55,1.08-1.16,1.08Zm-30.8-2.13s-.05,0-.08,0l-9.24-.64c-.64-.04-1.12-.6-1.08-1.23.04-.64.67-1.03,1.23-1.08l9.24.64c.64.04,1.12.6,1.08,1.23-.04.61-.55,1.08-1.16,1.08Zm100.68-.74c-.58,0-1.07-.43-1.15-1.01-.08-.64.37-1.21,1-1.3l9.19-1.18c.72-.09,1.21.37,1.3,1,.08.64-.37,1.21-1,1.3l-9.19,1.18c-.05,0-.1,0-.15,0Zm-131.48-1.38s-.05,0-.08,0l-9.24-.64c-.64-.05-1.12-.6-1.08-1.23.05-.64.65-1.04,1.23-1.08l9.24.64c.64.05,1.12.6,1.08,1.23-.04.61-.55,1.08-1.16,1.08Zm-30.8-2.13s-.05,0-.08,0l-9.24-.64c-.64-.05-1.12-.6-1.08-1.23.05-.64.64-1.04,1.23-1.08l9.24.64c.64.05,1.12.6,1.08,1.23-.04.61-.55,1.08-1.16,1.08Zm192.91-.41c-.58,0-1.07-.43-1.15-1.01-.08-.63.37-1.21,1-1.29l.6-.08,8.02-2.63c.61-.19,1.26.14,1.46.74.2.61-.14,1.26-.74,1.46l-9.05,2.8s-.1,0-.14,0Zm-223.72-1.72s-.05,0-.08,0l-9.24-.64c-.64-.05-1.12-.6-1.08-1.23.05-.64.63-1.05,1.23-1.08l9.24.64c.64.05,1.12.6,1.08,1.23-.04.61-.55,1.08-1.16,1.08Zm-30.8-2.13s-.05,0-.08,0l-9.24-.64c-.64-.04-1.12-.6-1.08-1.23.05-.64.62-1.06,1.23-1.08l9.24.64c.64.04,1.12.6,1.08,1.23-.04.61-.55,1.08-1.16,1.08Zm-30.8-2.13s-.05,0-.08,0l-9.86-.68-.16-.88c-.12-.63.27-1.37.9-1.48.34-.08.67-.01.92.16l8.36.58c.64.04,1.12.6,1.08,1.23-.04.61-.55,1.08-1.16,1.08Zm314.71-3.46c-.49,0-.94-.31-1.1-.8-.2-.61.14-1.26.74-1.46l8.81-2.86c.6-.18,1.26.14,1.46.74.2.61-.14,1.26-.74,1.46l-8.81,2.86c-.12.04-.24.06-.36.06Zm29.37-9.54c-.49,0-.94-.31-1.1-.8-.2-.61.14-1.26.74-1.46l8.81-2.86c.62-.18,1.26.14,1.46.74.2.61-.14,1.26-.74,1.46l-8.81,2.86c-.12.04-.24.06-.36.06Zm-356.71-9.21c-.56,0-1.05-.4-1.14-.98-.47-2.93-.95-5.99-1.43-9.17-.1-.63.34-1.22.97-1.32.66-.06,1.22.34,1.32.97.48,3.17.95,6.23,1.42,9.16.1.63-.33,1.22-.96,1.32-.06,0-.12.02-.18.02Zm386.08-.33c-.49,0-.94-.31-1.1-.8-.2-.61.14-1.26.74-1.46l8.81-2.86c.61-.19,1.26.13,1.46.74.2.61-.13,1.26-.74,1.46l-8.81,2.86c-.12.04-.24.06-.36.06Zm29.36-9.54c-.49,0-.94-.31-1.1-.8-.2-.61.13-1.26.74-1.46l8.81-2.86c.61-.19,1.26.14,1.46.74.2.61-.14,1.26-.74,1.46l-8.81,2.86c-.12.04-.24.06-.36.06Zm29.37-9.54c-.49,0-.94-.31-1.1-.8-.2-.61.14-1.26.74-1.46l8.81-2.86c.61-.21,1.26.14,1.46.74.2.61-.14,1.26-.74,1.46l-8.81,2.86c-.12.04-.24.06-.36.06Zm29.37-9.54c-.49,0-.94-.31-1.1-.8-.2-.61.14-1.26.74-1.46l8.81-2.86c.6-.2,1.26.13,1.46.74.2.61-.13,1.26-.74,1.46l-8.81,2.86c-.12.04-.24.06-.36.06Zm-478.62-1.61c-.57,0-1.07-.42-1.15-1.01-.4-3.03-.78-6.11-1.15-9.21-.08-.64.38-1.21,1.01-1.29.64-.07,1.21.38,1.29,1.01.37,3.09.76,6.16,1.15,9.18.08.64-.37,1.22-1,1.3-.05,0-.1,0-.15,0Zm502.06-11.73c-.58,0-1.08-.43-1.15-1.02-.38-3.06-.79-6.11-1.23-9.16-.09-.64.35-1.22.98-1.31.64-.13,1.22.35,1.31.98.44,3.06.86,6.13,1.24,9.21.08.64-.37,1.21-1.01,1.29-.05,0-.1,0-.14,0Zm-505.48-18.98c-.59,0-1.1-.45-1.15-1.06-.28-3.09-.53-6.18-.76-9.25-.05-.64.43-1.19,1.07-1.24.72.06,1.19.43,1.24,1.07.23,3.06.48,6.14.76,9.22.06.64-.41,1.2-1.05,1.25-.03,0-.07,0-.1,0Zm500.62-11.51c-.54,0-1.03-.39-1.14-.94-.6-3.05-1.21-6.07-1.84-9.06-.13-.63.27-1.24.89-1.37.65-.13,1.24.27,1.37.89.64,3,1.25,6.04,1.84,9.1.12.63-.29,1.23-.92,1.36-.07.02-.15.02-.22.02Zm-502.48-19.32c-.63,0-1.14-.5-1.16-1.13-.06-2.51-.09-4.97-.09-7.39v-1.91c0-.64.53-1.15,1.17-1.15h0c.64,0,1.16.53,1.15,1.17v1.89c0,2.4.03,4.85.09,7.34.01.64-.49,1.17-1.13,1.19h-.03Zm495.77-10.83c-.52,0-.99-.35-1.12-.88-.76-3.04-1.53-6.03-2.31-8.96-.16-.62.2-1.25.82-1.42.62-.15,1.25.2,1.42.82.78,2.93,1.55,5.94,2.31,8.99.15.62-.22,1.25-.84,1.4-.09.02-.19.04-.28.04Zm-484.34-10.67c-.57,0-1.07-.42-1.15-1-.09-.64.35-1.22.98-1.31l9.18-1.28c.61-.13,1.22.35,1.3.99.09.63-.35,1.22-.99,1.3l-9.18,1.28c-.06,0-.11.01-.16.01Zm30.6-4.25c-.57,0-1.07-.42-1.15-1-.09-.63.36-1.22.99-1.3l9.18-1.26c.61-.13,1.21.35,1.3.99.09.63-.36,1.22-.99,1.3l-9.18,1.26c-.05,0-.11.01-.16.01Zm30.61-4.19c-.57,0-1.07-.42-1.15-1-.09-.63.36-1.21.99-1.3l9.18-1.24c.65-.07,1.22.36,1.3.99.09.63-.36,1.22-.99,1.3l-9.19,1.24c-.05,0-.11,0-.15,0Zm30.61-4.13c-.57,0-1.07-.42-1.15-1-.08-.64.36-1.22.99-1.3l9.18-1.23c.66-.11,1.21.36,1.3.99.08.64-.36,1.22-.99,1.3l-9.18,1.23c-.05,0-.11,0-.15,0Zm30.62-4.07c-.57,0-1.07-.42-1.15-1.01-.08-.63.36-1.21,1-1.3l9.19-1.21c.64-.08,1.22.37,1.3,1,.08.64-.37,1.21-1,1.3l-9.19,1.21c-.05,0-.1,0-.15,0Zm353.72-2.48c-.5,0-.96-.33-1.11-.83-.92-3.08-1.83-6.03-2.72-8.84-.19-.61.14-1.26.75-1.45.63-.21,1.26.15,1.45.75.89,2.82,1.8,5.78,2.73,8.88.18.61-.16,1.26-.78,1.44-.11.03-.22.05-.33.05Zm-323.09-1.53c-.58,0-1.07-.42-1.15-1.01-.08-.63.37-1.21,1-1.3l9.19-1.19c.62-.08,1.21.37,1.3,1,.08.64-.37,1.21-1,1.3l-9.19,1.19s-.1,0-.15,0Zm30.63-3.93c-.58,0-1.07-.43-1.15-1.01-.08-.63.37-1.21,1-1.29l9.19-1.16c.65-.1,1.22.37,1.29,1,.08.64-.37,1.21-1,1.29l-9.19,1.16s-.1,0-.14,0Zm30.64-3.85c-.58,0-1.08-.43-1.15-1.02-.08-.64.37-1.21,1.01-1.29l9.19-1.14c.68-.1,1.21.38,1.29,1.01.08.64-.37,1.21-1.01,1.29l-9.19,1.14s-.1,0-.14,0Zm30.65-3.76c-.58,0-1.08-.43-1.15-1.02-.08-.63.38-1.21,1.01-1.29l9.19-1.11c.68-.1,1.21.38,1.29,1.01.08.64-.38,1.21-1.01,1.29l-9.19,1.11s-.09,0-.14,0Zm30.67-3.65c-.58,0-1.08-.43-1.15-1.02-.08-.64.38-1.21,1.01-1.28l9.2-1.07c.66-.1,1.21.38,1.28,1.01.08.64-.38,1.21-1.01,1.28l-9.2,1.07s-.09,0-.13,0Zm30.68-3.51c-.58,0-1.08-.44-1.15-1.03-.07-.64.39-1.21,1.02-1.28l9.21-1.02c.7-.03,1.21.4,1.28,1.03.07.64-.39,1.2-1.03,1.28l-9.2,1.02s-.09,0-.13,0Zm30.7-3.35c-.59,0-1.09-.44-1.15-1.04-.07-.64.4-1.2,1.03-1.27l9.21-.97c.69-.02,1.21.4,1.27,1.03.07.64-.4,1.21-1.03,1.27l-9.21.97s-.08,0-.12,0Zm30.72-3.14c-.59,0-1.09-.45-1.15-1.05-.06-.64.4-1.2,1.04-1.26l9.22-.89c.65-.09,1.2.41,1.26,1.04.06.64-.4,1.2-1.04,1.26l-9.22.89s-.08,0-.11,0Zm98.88-2.67c-.48,0-.93-.3-1.09-.77l-1.18-3.32c-1.35,0-2.75.03-4.21.06h-.02c-.63,0-1.15-.5-1.16-1.14-.01-.64.49-1.17,1.14-1.18,1.58-.03,3.09-.06,4.55-.06.8,0,1.5.46,1.74,1.14l1.33,3.73c.21.6-.11,1.26-.71,1.48-.13.04-.26.07-.39.07Zm-68.13-.17c-.6,0-1.1-.45-1.15-1.06-.06-.64.41-1.2,1.05-1.25,3.16-.27,6.24-.53,9.24-.78.64-.04,1.19.42,1.25,1.06.05.64-.42,1.19-1.06,1.25-2.99.24-6.07.5-9.22.77-.03,0-.07,0-.1,0Zm30.78-2.38c-.61,0-1.12-.47-1.16-1.08-.04-.64.44-1.19,1.08-1.23,3.21-.21,6.3-.4,9.26-.57.69-.1,1.19.45,1.22,1.09.04.64-.45,1.19-1.09,1.22-2.95.17-6.03.36-9.24.57-.03,0-.05,0-.08,0Z"/>
        <path class="cls-1" d="m2444.93,2039.94l-64.59,8.27c-8.46,1.08-16.4-4.3-18.47-12.54l-15.42-61.2c-2.46-9.75,4.2-19.45,14.22-20.74l77.6-9.93c9.82-1.26,18.59,6.14,18.97,15.98l2.41,62.86c.33,8.68-6.05,16.19-14.71,17.3Z"/>
        <path class="cls-15" d="m2435.52,2029.53l-49.16,6.29c-6.44.82-12.48-3.27-14.06-9.54l-11.73-46.58c-1.87-7.42,3.2-14.81,10.82-15.78l59.06-7.56c7.47-.96,14.15,4.67,14.44,12.16l1.84,47.85c.25,6.61-4.61,12.32-11.2,13.16Z"/>
      </g>
      <path class="cls-6" d="m2397.1,1534.22c15.24,62.95,15.64,124.54,13.32,146.97-.87,8.45-7.67,15.06-16.15,15.65-9.63.67-22.74,1.56-34.45,2.23-12.88.74-27.17-7.4-36.73-14.2-4.88-3.47-11.19,1.93-8.47,7.27,4.69,9.19,12.85,16.42,20.94,22.57,4.87,3.7,21.05,10.27,19.92,17.56-.36,2.3-1.74,4.3-3.23,6.09-8.99,10.79-22.6,16.55-36.03,20.68-1.68.52-3.46,1.07-4.65,2.37-.33,8.69,26.38,18.33,33.27,20.62,10.33,3.43,21.28,4.88,32.13,3.74,26.88-2.83,51.7-21.38,66.18-43.75,38.7-59.8,58.71-132.02,66.02-187.25-36-35.99-90.36-26.87-112.1-20.54Z"/>
      <g>
        <path class="cls-7" d="m2509.2,1560.44c28.71-216.9-138.44-383.68-138.44-383.68l-99.45,115.94c75.5,94.11,111.4,180.35,127.79,248.08,21.74-6.33,74.09-16.34,110.1,19.66Z"/>
        <path class="cls-11" d="m2396.73,1539.72c-2.78,0-5.3-1.89-5.98-4.71-20.21-83.5-62.81-166.16-126.6-245.68-2.13-2.65-1.71-6.53.95-8.66,2.65-2.12,6.53-1.7,8.66.95,64.94,80.95,108.33,165.23,128.97,250.49.8,3.31-1.23,6.63-4.54,7.43-.49.12-.97.17-1.46.17Z"/>
      </g>
    </g>
    <g>
      <g>
        <path class="cls-9" d="m1049.85,2825.56c.02-1.06-.05-2.13-.33-3.21-15.99-63.41-95.38-102.91-95.38-102.91l-31.46,2.47c-18.09,55.89-15.76,90.17-12.86,105.43.08.43.21.84.32,1.25,25.95,2.32,79.36,3.83,139.7-3.03Z"/>
        <path class="cls-3" d="m910.15,2828.59c1.4,5.1,5.16,9.07,9.98,10.08,36.91,7.76,95.58,1.52,120.22-1.7,5.43-.71,9.41-5.74,9.5-11.41-60.34,6.87-113.75,5.35-139.7,3.03Z"/>
        <path class="cls-4" d="m910.04,2675.05l13.32,64.14c.98,4.7,4.59,8.22,8.96,8.63,5.35.5,12.98.8,20.64-.33,6.87-1.01,11.66-7.99,10.44-15.49l-9.26-56.95h-44.11Z"/>
        <path class="cls-3" d="m1186.09,2827.78c-34.74-.97-52.71-5.06-62-8.86-.02,3.45,0,6.97.11,10.61.12,3.89,3,7,6.55,6.98l190.76-1.23c6.09-.04,9.64-7.1,7.01-12.68-25.01,2.07-88.71,6.69-142.42,5.19Z"/>
        <path class="cls-9" d="m1328.51,2822.59c-.23-.49-.43-.98-.76-1.44-16.85-23.54-59.75-70.41-144.54-90.74l-40.67-1.28s-18.11,31.48-18.45,89.79c9.29,3.8,27.26,7.89,62,8.86,53.71,1.5,117.41-3.12,142.42-5.19Z"/>
        <path class="cls-4" d="m1133.19,2669.38c.64,3,9.11,48.63,12.38,66.33.78,4.2,4.06,7.29,7.95,7.51,6.96.39,18.2.44,27.86-2.19,5.21-1.42,8.71-6.73,8.34-12.62l-4.55-72.19-51.98,13.16Z"/>
        <path class="cls-11" d="m1102.36,1826.74s55.95,384.47,96.33,841.98c.75,8.52-6.04,15.94-14.41,17.7-12.34,2.6-30.47,5.68-45.48,5.26-8.01-.22-14.71-6.17-16.06-14.07-13.75-80.67-111.91-513.6-137.67-608.88,0,0-29.59,404.74-20.13,614.72.24,5.22-3.59,9.75-8.78,10.35-7.88.91-20.48,1.6-36.51-.1-6.09-.65-11-5.25-11.87-11.31-9.8-68.27-66.19-474.64-63.79-767.38.14-16.51,19.37-152.14,19.37-152.14l239,63.86Z"/>
      </g>
      <path class="cls-8" d="m854.95,1848.9c-5.75-2.04-9.76-7.26-10.39-13.33-7.44-72.19-43.47-519.76,183.97-703.88,0,0,13.04-34.13,120.25,49.76,107.21,83.88,49.81,171.81,24.14,293.08-31.06,146.75-85.56,266.71-61.44,357.02,1.66,6.23-1.61,12.78-7.67,15.01-83.28,30.69-166.24,31.71-248.87,2.35Z"/>
      <path class="cls-4" d="m1117.25,997.58c-.07,6.37-90.89,135.36-90.89,135.36,0,0,16.3,32.1,94.12,58.17l67.18-138.12-70.41-55.42Z"/>
      <g>
        <path class="cls-4" d="m1188.76,923.66s32.31,74.23,34.49,113.2c2.17,38.96,10.57,64.24-34.49,72.09-45.05,7.85-83-14.6-103.56-53.41,0,0-32.21-59.8-24.99-84.29,7.23-24.49,128.55-47.58,128.55-47.58Z"/>
        <path class="cls-11" d="m1100.59,1027.63l2.56-1.13c3.26-1.44,4.66-5.33,3.02-8.49-6.35-12.27-18.74-40.4-2.74-46.96,20.62-8.46,102.29-25.11,119.91-54.09,16.94-27.85,1.93-63.81-20.62-74.03-1.51-.68-3.29-.14-4.06,1.32l-1.88,3.56c-1.29,2.43-4.88,2.07-5.65-.58h0c-.73-2.54-4.11-3.03-5.51-.79-5.42,8.67-20.04,22.73-59.15,29.94-55.58,10.26-92.32,32.75-93.24,71.15-.06,2.44-2.65,3.8-4.74,2.53-4.1-2.5-10.67-3.67-19.45,3.71-15.26,12.83-9.02,46.13,24.44,73.51,1.59,1.3,1.58,3.78-.14,4.9-6.07,3.95-15.11,13.34,8.32,25.87,24.24,12.96,42.33,11.89,49.3,10.74,1.73-.29,2.85-1.96,2.47-3.68l-7.44-33.75c-.42-1.91,1.03-3.72,2.99-3.72h11.59Z"/>
        <path class="cls-4" d="m1101.99,1034.76s-12.33-47.42-33.59-34.12c-21.26,13.3,11.03,53.13,28.12,54.91l5.46-20.78Z"/>
      </g>
      <g>
        <path class="cls-14" d="m1183.28,1220.37l6.26,168.17c17.79,6.12,34.72,10.88,50.84,14.44,10.09-32.47,32.29-72.32,50.48-101.95-66.81-23.62-107.58-80.65-107.58-80.65Z"/>
        <path class="cls-14" d="m1516.85,1217.51c-91.65,98.95-165.83,104.78-225.99,83.51-18.18,29.63-40.39,69.48-50.48,101.95,244.75,53.96,302.38-171.04,302.38-171.04l-25.92-14.42Z"/>
        <path class="cls-14" d="m1535.43,1207s10.56-11.34,30.1-7.77,36.93,10.35,49.11,0c12.17-10.35,16.45,3.54,16.45,3.54l-36.45,27.71-59.2-23.48Z"/>
        <path class="cls-14" d="m1513.63,1226.38s7.23-30.25,29.03-26.1c21.8,4.15,71.29,31.06,84.04,26.1,12.75-4.96,29.06-16.82,37.43-12.63l-14.74,18.32s37.89-21.86,44.41-8.43l-63.05,35.48s-92.24-9.23-117.14-32.74Z"/>
      </g>
      <path class="cls-4" d="m1081.54,1440.47s172.31,144.31,358.37,81.34c11.54-3.91,24.16-3.06,34.93,2.63l53.49,28.25c22.45,11.86,50.26,4.07,63.28-17.72,7.43-12.43,13.77-26.63,15.03-40.23l-104.67-42.37,7.72-12.83s-51.1-4.33-64.48,32.3c0,0-97.34,40.49-261.49-140.07,0,0-74.49,63.34-102.19,108.71Z"/>
      <path class="cls-10" d="m1072.26,1438.97c-.57,0-1.14-.16-1.65-.51-72.55-49.02-106.68-128.14-107.02-128.93-.63-1.5.07-3.23,1.56-3.87,1.5-.64,3.23.06,3.87,1.56.33.78,33.82,78.33,104.89,126.35,1.35.91,1.71,2.74.79,4.1-.57.84-1.5,1.3-2.44,1.3Z"/>
      <path class="cls-10" d="m1180.33,1329.31c-.97,0-1.92-.48-2.48-1.35-.22-.34-22.38-34.84-64.6-110.43-12.98-23.24-30.04-37.96-50.71-43.75-34.22-9.56-67.21,8.79-67.53,8.97-1.42.78-3.21.31-4.02-1.11-.8-1.42-.31-3.22,1.11-4.02,1.42-.81,35.35-19.79,71.98-9.53,22.26,6.21,40.54,21.87,54.32,46.56,42.11,75.4,64.19,109.78,64.41,110.12.88,1.37.49,3.19-.88,4.07-.5.32-1.05.47-1.6.47Z"/>
    </g>
  </g>
  <g>
    <path class="cls-11" d="m2473.87,500.98c-4.23.79-8.45-1.73-9.7-5.95-2.73-9.21-5.1-18.68-7.05-28.14-.95-4.6,2.02-9.1,6.62-10.05.06-.01.11-.02.16-.03,4.54-.84,8.95,2.1,9.88,6.65,1.85,8.99,4.1,17.98,6.69,26.74,1.34,4.5-1.23,9.24-5.74,10.57-.29.09-.58.16-.87.21Zm-13-72.97c-.33.06-.66.1-1,.13-4.69.31-8.74-3.24-9.05-7.93-.64-9.63-.87-19.38-.68-28.99.09-4.7,3.95-8.42,8.67-8.35,4.7.09,8.43,3.97,8.34,8.67-.17,9.13.05,18.39.65,27.54.29,4.35-2.75,8.15-6.93,8.92Zm3.39-74.01c-.93.17-1.91.19-2.9.03-4.64-.74-7.8-5.1-7.06-9.74,1.52-9.51,3.47-19.07,5.8-28.42,1.14-4.56,5.76-7.33,10.31-6.2,4.56,1.14,7.33,5.76,6.2,10.31-2.22,8.88-4.07,17.96-5.51,26.99-.58,3.65-3.41,6.39-6.85,7.02Zm19.86-71.41c-1.54.29-3.17.15-4.73-.48-4.36-1.76-6.46-6.72-4.7-11.07,3.61-8.94,7.65-17.82,12.01-26.41,2.13-4.18,7.24-5.86,11.44-3.74,4.19,2.13,5.86,7.25,3.74,11.44-4.14,8.16-7.98,16.6-11.41,25.09-1.13,2.8-3.58,4.66-6.34,5.18Zm35.28-65.19c-2.16.4-4.47-.03-6.41-1.38-3.86-2.68-4.81-7.99-2.13-11.84,5.49-7.89,11.4-15.66,17.55-23.09,3-3.62,8.36-4.12,11.98-1.12,3.62,3,4.12,8.36,1.12,11.98-5.85,7.06-11.47,14.44-16.68,21.94-1.33,1.91-3.31,3.11-5.43,3.51Zm48.82-55.76c-2.8.52-5.79-.37-7.84-2.63-3.17-3.47-2.92-8.85.54-12.02,7.11-6.49,14.59-12.76,22.23-18.63,3.73-2.86,9.07-2.16,11.93,1.57,2.86,3.72,2.16,9.07-1.56,11.93-7.26,5.58-14.36,11.53-21.12,17.7-1.22,1.11-2.67,1.8-4.17,2.08Zm302.8-76.87c-1.16.22-2.38.19-3.59-.11-8.87-2.2-17.96-4.04-27.01-5.47-4.64-.73-7.81-5.09-7.08-9.73.73-4.64,5.09-7.81,9.73-7.08,9.53,1.5,19.1,3.44,28.45,5.75,4.56,1.13,7.34,5.74,6.21,10.3-.83,3.34-3.53,5.73-6.71,6.32Zm-242.87,33.35c-3.47.64-7.12-.93-8.95-4.17-2.32-4.09-.88-9.28,3.2-11.6,8.38-4.75,17.06-9.19,25.82-13.21,4.28-1.94,9.32-.09,11.28,4.19,1.96,4.27.08,9.32-4.19,11.28-8.31,3.81-16.56,8.03-24.52,12.54-.85.48-1.74.8-2.64.97Zm169.38-42.94c-.55.1-1.12.15-1.71.14-9.14-.16-18.42.08-27.56.7-4.69.32-8.75-3.22-9.07-7.91-.32-4.69,3.22-8.77,7.91-9.07,9.62-.65,19.38-.9,29-.74,4.7.08,8.44,3.95,8.36,8.65-.07,4.11-3.05,7.5-6.94,8.22Zm-101.24,13.89c-4.22.78-8.44-1.73-9.7-5.93-1.34-4.5,1.22-9.24,5.72-10.59,9.22-2.75,18.68-5.14,28.12-7.1.06-.01.12-.03.18-.04,4.54-.84,8.94,2.09,9.88,6.63.95,4.6-2,9.11-6.6,10.06-8.97,1.86-17.95,4.13-26.71,6.75-.3.09-.59.16-.89.21Z"/>
    <path class="cls-11" d="m2927.46,104.32c-1.65.31-3.4.13-5.04-.61-4-1.81-8.1-3.55-12.19-5.21-4.36-1.76-6.47-6.71-4.71-11.07,1.76-4.36,6.71-6.47,11.07-4.71,4.31,1.73,8.62,3.58,12.83,5.47,4.28,1.93,6.19,6.97,4.26,11.25-1.19,2.64-3.56,4.38-6.21,4.87Z"/>
  </g>
  <g>
    <path class="cls-11" d="m3103.44,294.86c-4.04.75-8.13-1.52-9.56-5.51-1.47-4.13-3.06-8.3-4.71-12.39-1.76-4.36.35-9.32,4.7-11.07,4.38-1.77,9.32.35,11.08,4.7,1.74,4.31,3.41,8.7,4.96,13.05,1.58,4.43-.73,9.29-5.16,10.87-.43.16-.87.27-1.31.35Z"/>
    <path class="cls-11" d="m2852.31,732.11c-3.85.72-7.72,1.37-11.63,1.96-4.65.7-8.98-2.5-9.68-7.14-.7-4.65,2.51-9,7.14-9.69,9-1.36,17.93-3.09,26.63-5.15,4.58-1.08,9.16,1.74,10.24,6.31,1.08,4.57-1.74,9.16-6.32,10.24-5.38,1.28-10.9,2.44-16.39,3.46Zm-56.39,5.62c-.47.09-.95.14-1.44.14-9.49.14-19.09-.13-28.54-.78-4.69-.33-8.22-4.39-7.9-9.08.33-4.69,4.4-8.24,9.08-7.9,8.97.62,18.09.87,27.11.74,4.7-.07,8.56,3.69,8.63,8.38.06,4.21-2.94,7.74-6.94,8.49Zm115.52-22.41c-3.94.73-7.97-1.41-9.48-5.29-1.7-4.38.48-9.31,4.86-11.01,8.38-3.25,16.74-6.9,24.84-10.86,4.23-2.06,9.32-.31,11.38,3.91,2.06,4.22.31,9.32-3.91,11.38-8.53,4.17-17.33,8.01-26.15,11.43-.5.2-1.02.34-1.53.43Zm-188.14,15.42c-1.06.2-2.18.19-3.3-.04-9.28-1.95-18.59-4.32-27.67-7.04-4.5-1.35-7.05-6.09-5.7-10.59,1.35-4.5,6.09-7.06,10.59-5.7,8.62,2.59,17.46,4.84,26.27,6.69,4.6.96,7.54,5.48,6.58,10.07-.73,3.48-3.49,6.01-6.77,6.62Zm252.76-49.13c-3.23.6-6.67-.71-8.62-3.62-2.62-3.9-1.58-9.19,2.32-11.81,7.46-5.01,14.8-10.41,21.84-16.05,3.67-2.94,9.02-2.35,11.96,1.32,2.94,3.67,2.35,9.02-1.32,11.96-7.41,5.94-15.14,11.63-22.99,16.9-.99.67-2.08,1.1-3.19,1.31Zm55.67-47.08c-2.59.48-5.36-.24-7.41-2.19-3.41-3.23-3.55-8.62-.32-12.03,6.2-6.54,12.19-13.42,17.82-20.44,2.93-3.67,8.28-4.26,11.96-1.32,3.67,2.94,4.26,8.29,1.32,11.96-5.92,7.39-12.23,14.63-18.75,21.51-1.28,1.35-2.91,2.19-4.61,2.51Zm44.08-58.09c-1.97.37-4.07.04-5.92-1.07-4.03-2.41-5.34-7.64-2.93-11.67,4.63-7.74,8.99-15.75,12.95-23.83,2.07-4.22,7.16-5.96,11.38-3.89,4.22,2.07,5.96,7.16,3.89,11.38-4.17,8.5-8.75,16.94-13.62,25.08-1.31,2.18-3.43,3.56-5.75,4Zm30.36-66.32c-1.36.25-2.8.18-4.21-.29-4.46-1.47-6.88-6.28-5.41-10.74,2.83-8.56,5.32-17.33,7.41-26.08,1.09-4.57,5.69-7.39,10.25-6.3,4.57,1.09,7.39,5.68,6.3,10.25-2.2,9.22-4.82,18.46-7.8,27.47-1.01,3.05-3.58,5.15-6.53,5.7Zm15.06-71.39c-.77.14-1.57.18-2.38.1-4.68-.45-8.1-4.61-7.65-9.29.87-8.95,1.36-18.05,1.47-27.06.06-4.7,3.93-8.46,8.61-8.4,4.7.06,8.46,3.91,8.4,8.61-.12,9.49-.64,19.07-1.55,28.49-.37,3.86-3.28,6.87-6.91,7.55Zm-.99-72.91c-.17.03-.35.06-.52.08-4.66.58-8.91-2.74-9.48-7.4-.81-6.58-1.84-13.22-3.05-19.72-.44-2.36-.9-4.7-1.39-7.04-.96-4.6,1.99-9.11,6.59-10.06,4.64-1.06,9.1,1.99,10.06,6.59.51,2.46,1,4.92,1.46,7.4,1.27,6.84,2.35,13.83,3.2,20.75.55,4.49-2.49,8.59-6.88,9.4Z"/>
    <path class="cls-11" d="m2653.82,707.85c-1.66.31-3.43.13-5.09-.63-4.19-1.92-8.42-3.96-12.56-6.06-4.19-2.13-5.86-7.25-3.73-11.44,2.13-4.19,7.25-5.86,11.44-3.73,3.94,2,7.96,3.94,11.93,5.76,4.27,1.95,6.15,7,4.2,11.27-1.2,2.62-3.56,4.34-6.19,4.83Z"/>
  </g>
  <g>
    <path class="cls-11" d="m2647.08,608.74c1.29,1.1,3.14,1.25,4.6.38l41.6-24.72c20.12,10.29,42.03,17.44,65.04,20.85l19.49,44.26c.68,1.55,2.28,2.5,3.97,2.36l57.85-4.8c1.69-.14,3.11-1.34,3.52-2.98l11.93-46.87c22.13-7.16,42.56-17.82,60.71-31.29l45.11,17.53c1.58.61,3.38.16,4.47-1.14l37.51-44.3c1.1-1.3,1.25-3.14.38-4.6l-24.72-41.6c10.29-20.12,17.44-42.03,20.85-65.04l44.26-19.49c1.55-.68,2.5-2.28,2.36-3.97l-4.8-57.85c-.14-1.69-1.34-3.11-2.98-3.52l-46.87-11.93c-7.16-22.13-17.82-42.56-31.29-60.71l17.53-45.11c.61-1.58.16-3.38-1.14-4.47l-44.3-37.51c-1.29-1.1-3.14-1.25-4.6-.38l-41.6,24.72c-20.12-10.29-42.03-17.44-65.04-20.85l-19.49-44.26c-.68-1.55-2.28-2.5-3.97-2.36l-57.85,4.8c-1.69.14-3.11,1.34-3.52,2.98l-11.93,46.87c-22.13,7.16-42.56,17.82-60.71,31.29l-45.11-17.53c-1.58-.62-3.38-.16-4.47,1.14l-37.51,44.3c-1.1,1.29-1.25,3.14-.38,4.6l24.72,41.6c-10.29,20.12-17.44,42.03-20.85,65.04l-44.26,19.49c-1.55.68-2.5,2.28-2.36,3.97l4.8,57.85c.14,1.69,1.34,3.11,2.98,3.52l46.87,11.93c7.16,22.13,17.82,42.56,31.29,60.71l-17.52,45.11c-.61,1.58-.16,3.38,1.14,4.47l44.3,37.51Z"/>
    <path class="cls-15" d="m2800.26,452.85c-27.96,5.2-56.33-10.77-65.82-38.47-10.43-30.44,5.85-63.68,36.29-74.11,14.75-5.06,30.58-4.06,44.57,2.79,14,6.85,24.49,18.75,29.54,33.49,10.43,30.44-5.85,63.68-36.29,74.11-2.74.94-5.51,1.66-8.29,2.18Zm-18.71-101.39c-2.16.4-4.3.96-6.42,1.69-23.34,7.99-35.82,33.49-27.82,56.82,8,23.34,33.48,35.83,56.82,27.82,23.34-7.99,35.82-33.49,27.82-56.82-3.87-11.31-11.92-20.43-22.65-25.68-8.72-4.27-18.38-5.57-27.76-3.83Z"/>
    <path class="cls-15" d="m2816.83,535.49c-4.8.89-9.68,1.55-14.61,1.96h0c-1.55.13-3.11.23-4.67.31-7.68.39-15.37.17-22.97-.66-.1-.01-.21-.02-.31-.03-.29-.03-.59-.07-.88-.1-.57-.07-1.14-.14-1.71-.21-1.5-.19-2.64-1.34-2.91-2.75-.06-.34-.07-.7-.03-1.07.24-1.86,1.95-3.17,3.81-2.93,9.59,1.25,19.38,1.47,29.09.66,48.26-4,88.64-32.75,109.69-72.72,11.71-22.23,17.44-47.93,15.21-74.77-.39-4.71-1.01-9.36-1.87-13.94-5.73-30.83-21.76-58.52-46.01-79.05-27.86-23.59-63.24-34.92-99.62-31.9-75.13,6.24-131.13,72.4-124.9,147.5.38,4.63,1,9.22,1.85,13.76,3.66,19.67,11.58,38.31,23.26,54.57.3.42.49.88.58,1.36.23,1.25-.25,2.59-1.36,3.39-1.53,1.09-3.65.75-4.75-.78-12.26-17.07-20.58-36.65-24.42-57.29-.89-4.76-1.53-9.58-1.94-14.44-6.54-78.84,52.3-148.31,131.12-154.85,38.19-3.17,75.33,8.73,104.58,33.49,25.46,21.56,42.29,50.63,48.31,82.99.89,4.81,1.55,9.69,1.96,14.63,3.17,38.19-8.72,75.33-33.49,104.58-21.56,25.47-50.64,42.29-83.01,48.31Z"/>
  </g>
  <g>
    <g>
      <path class="cls-11" d="m2245.89,797.69c-2.21.54-4.59-.39-5.8-2.46-2.24-3.85-4.4-7.83-6.41-11.82-1.31-2.59-.27-5.75,2.32-7.06,2.59-1.32,5.75-.27,7.06,2.32,1.92,3.8,3.97,7.59,6.11,11.27,1.46,2.5.61,5.72-1.9,7.18-.45.26-.91.44-1.39.56Z"/>
      <path class="cls-11" d="m2228.84,761.04c-2.59.64-5.29-.77-6.2-3.33-2.59-7.23-4.83-14.68-6.67-22.13-.39-1.57-.76-3.15-1.11-4.74-.63-2.84,1.32-5.57,3.98-6.28,2.83-.63,5.64,1.15,6.28,3.98.34,1.52.69,3.03,1.06,4.53,1.75,7.11,3.89,14.21,6.36,21.11.98,2.73-.45,5.74-3.18,6.72-.17.06-.35.11-.52.15Zm-11.93-53.24c-.24.06-.49.11-.74.13-2.89.28-5.46-1.82-5.75-4.71-.92-9.27-1.27-18.67-1.05-27.95.07-2.9,2.49-5.19,5.38-5.13,2.9.07,5.19,2.48,5.13,5.38-.22,8.85.12,17.82,1,26.66.26,2.63-1.47,5-3.96,5.62Zm1.33-54.54c-.65.16-1.34.2-2.04.09-2.87-.43-4.85-3.11-4.42-5.98,1.38-9.19,3.35-18.4,5.86-27.37.78-2.8,3.67-4.43,6.48-3.64,2.79.78,4.42,3.68,3.64,6.47-2.39,8.55-4.27,17.33-5.59,26.09-.33,2.17-1.94,3.83-3.94,4.32Zm14.7-52.55c-1.06.26-2.2.19-3.28-.25-2.68-1.12-3.94-4.2-2.82-6.88,3.6-8.59,7.76-17.03,12.37-25.09,1.44-2.52,4.66-3.38,7.17-1.95,2.52,1.44,3.39,4.65,1.95,7.17-4.4,7.68-8.37,15.73-11.8,23.93-.67,1.6-2.03,2.69-3.59,3.07Zm27.09-47.36c-1.47.36-3.1.09-4.41-.9-2.32-1.74-2.8-5.03-1.06-7.35,5.57-7.45,11.66-14.62,18.09-21.32,2.01-2.1,5.34-2.17,7.43-.16,2.09,2.01,2.16,5.34.16,7.43-6.13,6.4-11.94,13.24-17.26,20.35-.76,1.01-1.81,1.67-2.95,1.95Zm37.76-39.34c-1.91.47-4.01-.16-5.34-1.79-1.83-2.25-1.49-5.56.76-7.39,7.22-5.87,14.87-11.34,22.74-16.26,2.47-1.53,5.7-.79,7.24,1.67,1.54,2.46.79,5.7-1.67,7.24-7.51,4.69-14.8,9.91-21.68,15.51-.62.51-1.33.85-2.06,1.03Zm46.22-28.91c-2.39.59-4.94-.57-6.02-2.89-1.22-2.63-.08-5.76,2.55-6.98,8.41-3.91,17.17-7.33,26.05-10.19,2.78-.84,5.73.63,6.61,3.4.89,2.76-.63,5.72-3.39,6.61-8.47,2.72-16.83,5.99-24.84,9.72-.32.15-.64.26-.96.34Zm79.05-20.17c-.29.07-.6.12-.92.14-7.64.5-15.39,1.44-23.04,2.77-1.16.2-2.29.4-3.42.62-2.85.54-5.6-1.32-6.15-4.17-.55-2.86,1.32-5.69,4.17-6.15,1.21-.23,2.41-.45,3.63-.66,7.99-1.39,16.11-2.37,24.13-2.9,2.9-.19,5.4,2,5.59,4.9.17,2.58-1.55,4.85-3.98,5.45Z"/>
    </g>
    <g>
      <path class="cls-11" d="m2493.58,900.65c-2.79.69-5.61-.99-6.34-3.78-.73-2.81.95-5.68,3.76-6.41,8.46-2.2,16.85-4.93,24.94-8.13,2.69-1.03,5.75.26,6.82,2.96,1.07,2.7-.26,5.75-2.96,6.82-8.49,3.35-17.29,6.22-26.15,8.52-.02,0-.05.01-.07.02Zm-26.38,5.2c-.18.05-.37.08-.56.11-9.06,1.23-18.3,1.92-27.44,2.05-2.9.04-5.29-2.27-5.33-5.18-.05-2.91,2.29-5.28,5.17-5.33,8.72-.13,17.53-.79,26.18-1.96,2.87-.39,5.52,1.63,5.91,4.5.36,2.69-1.37,5.17-3.94,5.81Zm76.28-24.89c-2.26.56-4.7-.45-5.87-2.59-1.39-2.54-.45-5.74,2.1-7.12,7.68-4.19,15.16-8.87,22.25-13.93,2.37-1.68,5.64-1.14,7.33,1.23,1.69,2.36,1.14,5.64-1.22,7.33-7.43,5.3-15.28,10.21-23.32,14.6-.41.22-.83.38-1.26.49Zm-129.96,25.64c-.58.14-1.19.19-1.82.12-9.1-.99-18.23-2.55-27.14-4.64-2.83-.66-4.58-3.49-3.92-6.32.66-2.82,3.49-4.57,6.32-3.91,8.49,1.99,17.2,3.48,25.87,4.42,2.88.31,4.97,2.91,4.66,5.79-.25,2.25-1.88,4.02-3.97,4.53Zm173.62-56.82c-1.81.45-3.79-.08-5.14-1.55-1.96-2.14-1.82-5.47.32-7.43,6.43-5.89,12.57-12.23,18.24-18.86,1.89-2.21,5.21-2.46,7.41-.57,2.2,1.89,2.46,5.21.57,7.41-5.95,6.95-12.38,13.6-19.12,19.78-.67.61-1.46,1.02-2.29,1.22Zm34.91-40.74c-1.38.34-2.9.12-4.17-.73-2.42-1.61-3.07-4.87-1.46-7.29,4.84-7.28,9.29-14.91,13.21-22.68,1.31-2.59,4.47-3.63,7.06-2.33,2.59,1.31,3.63,4.46,2.32,7.05-4.11,8.15-8.77,16.16-13.84,23.78-.76,1.14-1.88,1.89-3.11,2.19Zm24.14-47.93c-.97.24-2.02.21-3.03-.16-2.73-.98-4.15-3.99-3.16-6.72,2.97-8.22,5.45-16.7,7.38-25.19.65-2.82,3.46-4.6,6.29-3.95,2.83.64,4.6,3.46,3.96,6.29-2.03,8.9-4.63,17.79-7.74,26.42-.62,1.72-2.04,2.91-3.69,3.32Z"/>
      <path class="cls-11" d="m2361.04,894.26c-.98.24-2.05.2-3.07-.17-4.22-1.55-8.41-3.24-12.46-5.01-2.66-1.16-3.87-4.26-2.71-6.92,1.17-2.65,4.26-3.87,6.92-2.71,3.86,1.69,7.86,3.3,11.89,4.79,2.72,1,4.12,4.03,3.11,6.75-.63,1.7-2.04,2.88-3.68,3.28Z"/>
    </g>
    <g>
      <path class="cls-11" d="m2349.04,827.31c.91.68,2.15.71,3.09.08l26.84-18.13c13.84,6.09,28.75,10.02,44.26,11.41l14.74,28.81c.52,1.01,1.62,1.58,2.74,1.42l38.46-5.45c1.12-.16,2.02-1.01,2.24-2.13l6.15-31.77c14.51-5.64,27.74-13.55,39.35-23.25l30.81,9.96c1.08.35,2.26-.03,2.95-.93l23.34-31.05c.68-.91.71-2.15.08-3.09l-18.13-26.84c6.09-13.84,10.02-28.75,11.41-44.26l28.81-14.74c1.01-.52,1.58-1.62,1.42-2.74l-5.45-38.46c-.16-1.12-1.01-2.02-2.13-2.24l-31.77-6.16c-5.64-14.51-13.55-27.74-23.25-39.35l9.96-30.81c.35-1.08-.03-2.26-.93-2.94l-31.05-23.34c-.91-.68-2.15-.71-3.09-.08l-26.84,18.13c-13.84-6.09-28.75-10.02-44.26-11.41l-14.74-28.81c-.52-1.01-1.62-1.58-2.74-1.42l-38.46,5.45c-1.12.16-2.02,1.01-2.24,2.13l-6.15,31.77c-14.51,5.64-27.74,13.55-39.35,23.25l-30.81-9.96c-1.08-.35-2.26.03-2.95.93l-23.34,31.05c-.68.91-.71,2.15-.08,3.09l18.12,26.84c-6.09,13.84-10.02,28.75-11.41,44.26l-28.81,14.74c-1.01.52-1.58,1.62-1.42,2.74l5.45,38.46c.16,1.12,1.01,2.02,2.13,2.24l31.77,6.16c5.64,14.51,13.55,27.74,23.25,39.35l-9.96,30.81c-.35,1.08.03,2.26.93,2.95l31.05,23.34Z"/>
      <path class="cls-15" d="m2445.44,717.94c-8.23,2.03-16.86,1.37-24.82-1.97-9.79-4.11-17.39-11.79-21.41-21.61-8.29-20.28,1.47-43.53,21.75-51.83,20.33-8.27,43.54,1.47,51.83,21.76,4.02,9.83,3.97,20.63-.14,30.42-4.11,9.79-11.78,17.4-21.62,21.41-1.84.75-3.71,1.36-5.6,1.82Zm-16.41-67.01c-1.37.34-2.74.78-4.08,1.33-14.92,6.1-22.1,23.2-16,38.13,2.95,7.23,8.55,12.88,15.74,15.9,7.2,3.02,15.15,3.05,22.38.11h0c7.23-2.95,12.88-8.55,15.9-15.75,3.02-7.2,3.06-15.15.1-22.38-5.55-13.57-20.21-20.74-34.04-17.33Z"/>
      <path class="cls-15" d="m2460.21,774.71c-3.23.8-6.52,1.43-9.88,1.91-6.67.95-13.45,1.22-20.15.8-.3-.02-.6-.04-.9-.06-2.33-.17-4.19-1.83-4.73-3.98-.13-.52-.18-1.08-.14-1.64.21-2.89,2.73-5.06,5.62-4.86,6.26.45,12.59.23,18.83-.66h0c.34-.05.69-.1,1.02-.15,14.74-2.23,28.36-8.05,39.93-16.82,6.28-4.76,11.96-10.4,16.87-16.82.04-.05.08-.1.12-.16.12-.16.24-.32.36-.48,14.2-18.89,20.2-42.18,16.88-65.58-.43-3.03-1.01-6.01-1.73-8.94-4.86-19.71-16.26-37-32.7-49.37-18.89-14.2-42.18-20.19-65.57-16.88-23.38,3.32-44.11,15.54-58.31,34.43-14.2,18.89-20.2,42.18-16.88,65.58.42,2.98.99,5.92,1.71,8.82,3.1,12.57,8.92,24.33,17.08,34.4.5.62.84,1.32,1.02,2.05.47,1.91-.16,4.02-1.79,5.34-2.26,1.82-5.56,1.48-7.39-.78-9.13-11.27-15.64-24.42-19.11-38.48-.8-3.25-1.44-6.54-1.91-9.87-3.71-26.18,3-52.24,18.89-73.37,15.89-21.13,39.04-34.83,65.23-38.52,26.18-3.71,52.23,3,73.36,18.89,18.4,13.83,31.15,33.18,36.59,55.23.81,3.27,1.46,6.61,1.94,10,7.18,50.68-25.57,97.98-74.24,109.97Z"/>
    </g>
  </g>
</svg>